<svg width="128" height="128" viewBox="0 0 128 128" fill="none" xmlns="http://www.w3.org/2000/svg">
<path d="M114 124H14C8.5 124 4 119.5 4 114V14C4 8.5 8.5 4 14 4H114C119.5 4 124 8.5 124 14V114C124 119.5 119.5 124 114 124Z" fill="white"/>
<path d="M65 95C63.3 95 62 93.7 62 92V60C62 58.3 63.3 57 65 57H72.5C79.9 57 86 63.1 86 70.5C86 77.9 79.9 84 72.5 84H68V92C68 93.7 66.7 95 65 95ZM68 78H72.5C76.6 78 80 74.6 80 70.5C80 66.4 76.6 63 72.5 63H68V78Z" fill="#71C2FF"/>
<path d="M94 95C92.3 95 91 93.7 91 92V60C91 58.3 92.3 57 94 57C95.7 57 97 58.3 97 60V92C97 93.7 95.7 95 94 95Z" fill="#71C2FF"/>
<path d="M56.8999 91.3L49.3999 61.2C48.7999 58.7 46.5999 57 43.9999 57C41.3999 57 39.1999 58.7 38.5999 61.2L31.0999 91.3C30.6999 92.9 31.6999 94.5 33.2999 94.9C34.8999 95.3 36.4999 94.3 36.8999 92.7L38.2999 86.9C38.4999 86.9 38.6999 87 38.8999 87H49.5999L50.9999 92.7C51.2999 94.1 52.5999 95 53.8999 95C54.0999 95 54.3999 95 54.5999 94.9C56.2999 94.5 57.2999 92.9 56.8999 91.3ZM39.7999 81L43.9999 64.4L48.1999 81H39.7999Z" fill="#71C2FF"/>
<path d="M16 19C17.6569 19 19 17.6569 19 16C19 14.3431 17.6569 13 16 13C14.3431 13 13 14.3431 13 16C13 17.6569 14.3431 19 16 19Z" fill="#444B54"/>
<path d="M26 19C27.6569 19 29 17.6569 29 16C29 14.3431 27.6569 13 26 13C24.3431 13 23 14.3431 23 16C23 17.6569 24.3431 19 26 19Z" fill="#444B54"/>
<path d="M36 19C37.6569 19 39 17.6569 39 16C39 14.3431 37.6569 13 36 13C34.3431 13 33 14.3431 33 16C33 17.6569 34.3431 19 36 19Z" fill="#444B54"/>
<path d="M114 127H14C6.8 127 1 121.2 1 114V42C1 40.3 2.3 39 4 39C5.7 39 7 40.3 7 42V114C7 117.9 10.1 121 14 121H114C117.9 121 121 117.9 121 114V14C121 10.1 117.9 7 114 7H14C10.1 7 7 10.1 7 14V25H111C112.7 25 114 26.3 114 28C114 29.7 112.7 31 111 31H4C2.3 31 1 29.7 1 28V14C1 6.8 6.8 1 14 1H114C121.2 1 127 6.8 127 14V114C127 121.2 121.2 127 114 127Z" fill="#444B54"/>
<path d="M16 19C14.3 19 13 17.7 13 16C13 14.3 14.3 13 16 13" fill="#444B54"/>
</svg>
