<svg width="26" height="82" viewBox="0 0 26 82" fill="none" xmlns="http://www.w3.org/2000/svg">
<path d="M11.0769 0.923065C9.93046 0.923065 9 1.85353 9 2.99999V3.96273C5.418 4.88627 2.76923 8.12999 2.76923 12V20.3077L0 23.0769V24.4615H22.1538V23.0769L19.3846 20.3077V12C19.3846 8.12999 16.7358 4.88897 13.1538 3.96543V2.99999C13.1538 1.85353 12.2234 0.923065 11.0769 0.923065ZM8.30769 25.8461C8.30769 27.3761 9.54831 28.6154 11.0769 28.6154C12.6055 28.6154 13.8462 27.3748 13.8462 25.8461H8.30769Z" fill="black"/>
<circle cx="20.3077" cy="3.69231" r="3.69231" fill="#F55050"/>
<path d="M11.0769 49.6154C9.93046 49.6154 9 50.6234 9 51.8654V52.9084C5.418 53.9089 2.76923 57.4229 2.76923 61.6154V70.6154L0 73.6154V75.1154H22.1538V73.6154L19.3846 70.6154V61.6154C19.3846 57.4229 16.7358 53.9118 13.1538 52.9113V51.8654C13.1538 50.6234 12.2234 49.6154 11.0769 49.6154ZM8.30769 76.6154C8.30769 78.2729 9.54831 79.6154 11.0769 79.6154C12.6055 79.6154 13.8462 78.2714 13.8462 76.6154H8.30769Z" fill="black"/>
<rect x="0.5" y="0.5" width="25" height="81" rx="4.5" stroke="#9747FF" stroke-dasharray="10 5"/>
</svg>
