<svg width="137" height="138" viewBox="0 0 137 138" fill="none" xmlns="http://www.w3.org/2000/svg">
<path d="M65.3689 9.87905C67.3069 8.79162 69.693 8.79162 71.6281 9.87905C81.2038 15.2535 110.019 31.4309 119.598 36.8053C121.536 37.8898 122.729 39.8992 122.729 42.0741C122.729 52.8228 122.729 85.1748 122.729 95.9236C122.729 98.0985 121.536 100.108 119.598 101.195C110.022 106.57 81.2067 122.747 71.6281 128.121C69.6901 129.209 67.304 129.209 65.3689 128.121C55.7932 122.747 26.9775 106.57 17.3989 101.195C15.4638 100.108 14.2708 98.1013 14.2708 95.9265C14.2708 85.1777 14.2708 52.8257 14.2708 42.0769C14.2708 39.902 15.4638 37.8927 17.4018 36.8053C26.9746 31.4309 55.796 15.2535 65.3689 9.87905Z" fill="#00C853"/>
<path d="M15.1384 98.6946C14.3792 97.6785 14.2708 96.7138 14.2708 95.4151C14.2708 84.7291 14.2708 52.5627 14.2708 41.8738C14.2708 39.7104 15.4609 37.7125 17.3932 36.6336C26.9347 31.2906 55.6533 15.2073 65.1948 9.86149C67.1271 8.77976 69.7443 8.8026 71.6766 9.88433C81.2181 15.2273 109.84 31.1736 119.381 36.5166C120.152 36.9504 120.74 37.4727 121.265 38.1606L15.1384 98.6946Z" fill="#69F0AE"/>
<path d="M68.5001 29.042C46.4374 29.042 28.5417 46.9376 28.5417 69.0003C28.5417 91.063 46.4374 108.959 68.5001 108.959C90.5628 108.959 108.458 91.063 108.458 69.0003C108.458 46.9376 90.5628 29.042 68.5001 29.042ZM68.5001 88.9795C57.483 88.9795 48.5209 80.0174 48.5209 69.0003C48.5209 57.9832 57.483 49.0212 68.5001 49.0212C79.5172 49.0212 88.4792 57.9832 88.4792 69.0003C88.4792 80.0174 79.5172 88.9795 68.5001 88.9795Z" fill="white"/>
<path d="M121.259 38.1895C122.732 39.568 122.704 41.6459 122.704 43.2813C122.704 54.1129 122.612 84.9207 122.729 95.7523C122.741 96.8825 122.367 98.0727 121.807 98.9689L67.3384 69.0002L121.259 38.1895Z" fill="#00E676"/>
<path d="M97.0417 57.583H99.8959V80.4163H97.0417V57.583ZM105.604 57.583H108.458V80.4163H105.604V57.583Z" fill="white"/>
<path d="M91.3333 71.8545H114.167V74.7087H91.3333V71.8545ZM91.3333 63.292H114.167V66.1462H91.3333V63.292Z" fill="white"/>
</svg>
