<svg width="128" height="115" viewBox="0 0 128 115" fill="none" xmlns="http://www.w3.org/2000/svg">
<path d="M117.333 57.5C117.333 71.0232 110.984 83.2236 100.8 91.8924L100.784 91.9066C91.2001 100.012 78.2507 105 64.0001 105C34.5494 105 10.6667 83.7295 10.6667 57.5C10.6667 44.8223 16.2321 33.3035 25.3334 24.7844C25.3494 24.7535 25.3681 24.7392 25.3841 24.725C35.1174 15.6549 48.8161 10 64.0001 10C93.4507 10 117.333 31.2705 117.333 57.5Z" fill="#6A1B9A"/>
<path d="M102.333 90.4222C101.835 90.9281 101.317 91.4174 100.8 91.8924L100.784 91.9066C91.2001 100.012 78.2507 105 64.0001 105C34.5494 105 10.6667 83.7295 10.6667 57.5C10.6667 44.8223 16.2321 33.3035 25.3334 24.7844C25.3494 24.7535 25.3681 24.7392 25.3841 24.725C25.9174 24.2642 26.4667 23.8059 27.0347 23.3594L102.333 90.4222Z" fill="#7B1FA2"/>
<path d="M23.0026 65.2925C22.3733 65.302 21.7679 65.0764 21.3359 64.6703C20.8906 64.2784 20.6453 63.744 20.6533 63.1859C20.6479 62.6302 20.8959 62.0958 21.3359 61.7015C21.7653 61.2883 22.3706 61.0555 23.0026 61.0627C23.6346 61.0603 24.2373 61.293 24.6693 61.7015C25.1199 62.091 25.3706 62.6278 25.3679 63.1859C25.3733 63.7464 25.1199 64.2832 24.6693 64.6703C24.2319 65.0717 23.6293 65.2973 23.0026 65.2925Z" fill="white"/>
<path d="M56.1173 64.9221H51.7493L36.1333 43.3405C35.7439 42.8085 35.4213 42.2408 35.1653 41.6495H35.0319C35.1813 42.8821 35.2373 44.1218 35.1973 45.3592V64.9221H31.6479V37.8613H36.2639L51.4639 59.0582C52.0959 59.9393 52.5093 60.5426 52.6959 60.8703H52.7786C52.6026 59.5498 52.5306 58.2222 52.5626 56.8922V37.8637H56.1119V64.9221H56.1173Z" fill="white"/>
<path d="M80.152 64.9221H64.0027V37.8613H79.4027V40.7256H67.6374V49.7221H78.6054V52.5721H67.6374V61.9533H80.1707L80.152 64.9221Z" fill="white"/>
<path d="M104.003 40.7275H95.1706V64.924H91.6213V40.7275H82.8879V37.8633H104.005L104.003 40.7275Z" fill="white"/>
<path d="M54.2026 83.3283C52.9999 83.8484 51.6719 84.0978 50.3359 84.0551C48.5386 84.1263 46.7973 83.5041 45.5519 82.3474C44.3279 81.1267 43.6826 79.5307 43.7519 77.8943C43.6613 76.1036 44.3893 74.3579 45.7679 73.0541C47.1146 71.8262 48.9759 71.1588 50.9013 71.2134C52.0399 71.1778 53.1759 71.3559 54.2346 71.7336V73.2179C53.2159 72.7144 52.0666 72.4603 50.9013 72.4769C49.4159 72.4389 47.9839 72.9828 46.9839 73.9613C45.9439 75.0158 45.4053 76.3886 45.4853 77.7898C45.4079 79.1174 45.9093 80.4213 46.8853 81.4259C47.8319 82.3332 49.1786 82.8272 50.5679 82.7773C51.8479 82.8082 53.1119 82.5184 54.2186 81.9461L54.2026 83.3283Z" fill="#F2F2F2"/>
<path d="M61.0186 84.0544C59.6773 84.0924 58.3813 83.6103 57.4693 82.7339C56.5573 81.8291 56.0853 80.6392 56.152 79.4232C56.0666 78.1383 56.5653 76.8748 57.536 75.9201C58.5253 75.0603 59.872 74.6019 61.2533 74.6589C62.56 74.5972 63.832 75.0461 64.736 75.8916C65.6213 76.8416 66.0693 78.0576 65.9866 79.2902C66.056 80.5418 65.5706 81.7673 64.6373 82.7054C63.7066 83.5984 62.3866 84.0924 61.0186 84.0544ZM61.136 75.9343C60.208 75.8987 59.312 76.2431 58.704 76.8701C58.064 77.6063 57.744 78.5231 57.8026 79.4541C57.744 80.3566 58.064 81.2448 58.704 81.9478C59.32 82.5653 60.2133 82.9026 61.136 82.8693C62.0426 82.9168 62.9226 82.5891 63.52 81.9787C64.1253 81.2424 64.4213 80.3376 64.352 79.4256C64.4186 78.5088 64.1226 77.6016 63.52 76.8582C62.9306 76.2336 62.048 75.8939 61.136 75.9343Z" fill="#F2F2F2"/>
<path d="M73.7679 76.3809C73.4079 76.1719 72.9812 76.0722 72.5519 76.0983C71.8692 76.1197 71.2452 76.4427 70.8852 76.9604C70.3892 77.6611 70.1492 78.4804 70.2026 79.3069V83.8479H68.5359V74.9417H70.2026V76.7966C70.3866 76.2218 70.7492 75.7064 71.2532 75.3122C71.6879 74.9773 72.2452 74.7921 72.8186 74.7921C73.1412 74.7802 73.4639 74.8206 73.7679 74.9108V76.3809Z" fill="#F2F2F2"/>
<path d="M83.5359 79.7654H76.4852C76.4372 80.5942 76.7412 81.4112 77.3359 82.0525C77.9599 82.6082 78.8212 82.898 79.7012 82.8552C80.8319 82.8457 81.9226 82.4942 82.8026 81.8601V83.1949C81.7732 83.8005 80.5519 84.0974 79.3199 84.0404C78.0612 84.0974 76.8399 83.6509 75.9866 82.822C75.1199 81.8577 74.6852 80.6417 74.7706 79.4067C74.7119 78.1717 75.1812 76.9605 76.0879 76.0224C76.9226 75.1626 78.1466 74.6829 79.4212 74.7161C80.5732 74.6591 81.6906 75.0747 82.4559 75.8442C83.2239 76.7444 83.6026 77.863 83.5226 78.9911L83.5359 79.7654ZM81.8692 78.5636C81.9039 77.8749 81.6666 77.198 81.2026 76.6494C80.7412 76.1839 80.0666 75.9321 79.3679 75.9654C78.6426 75.9582 77.9466 76.2219 77.4506 76.6921C76.9012 77.2099 76.5572 77.8701 76.4666 78.5779L81.8692 78.5636Z" fill="#F2F2F2"/>
</svg>
