<svg width="92" height="52" viewBox="0 0 92 52" fill="none" xmlns="http://www.w3.org/2000/svg">
<g clip-path="url(#clip0_72_416)">
<path d="M7.06663 14.9333L1.06663 8.93333C0.533293 8.4 0.533293 7.56667 1.06663 7.03333L7.06663 1.03333C7.59996 0.499998 8.43329 0.499998 8.96663 1.03333L14.9666 7.03333C15.5 7.56667 15.5 8.4 14.9666 8.93333L8.96663 14.9333C8.43329 15.4667 7.56663 15.4667 7.06663 14.9333Z" fill="#F44336"/>
<path d="M7.19995 10.9C7.19995 10.8 7.23328 10.7 7.26662 10.6C7.29995 10.5 7.36662 10.4333 7.43328 10.3667C7.49995 10.3 7.59995 10.2333 7.69995 10.2C7.79995 10.1667 7.89995 10.1333 8.03328 10.1333C8.16662 10.1333 8.26662 10.1667 8.36662 10.2C8.46662 10.2333 8.56662 10.3 8.63328 10.3667C8.69995 10.4333 8.76662 10.5 8.79995 10.6C8.83328 10.7 8.86662 10.8 8.86662 10.9C8.86662 11 8.83328 11.1 8.79995 11.2C8.76662 11.3 8.69995 11.3667 8.63328 11.4333C8.56662 11.5 8.46662 11.5667 8.36662 11.6C8.26662 11.6333 8.16662 11.6667 8.03328 11.6667C7.89995 11.6667 7.79995 11.6333 7.69995 11.6C7.59995 11.5667 7.53328 11.5 7.43328 11.4333C7.36662 11.3667 7.29995 11.3 7.26662 11.2C7.23328 11.1 7.19995 11.0333 7.19995 10.9ZM8.59995 9.36668H7.39995L7.23328 4.33334H8.76662L8.59995 9.36668Z" fill="white"/>
</g>
<rect x="15.5" y="29.5" width="70" height="7" fill="#E8D2A6"/>
<path d="M19.756 35C19.692 35 19.642 34.982 19.606 34.946C19.57 34.91 19.552 34.858 19.552 34.79V30.98C19.552 30.912 19.57 30.86 19.606 30.824C19.642 30.788 19.692 30.77 19.756 30.77H22.024C22.08 30.77 22.122 30.784 22.15 30.812C22.178 30.84 22.192 30.878 22.192 30.926C22.192 30.982 22.178 31.024 22.15 31.052C22.122 31.076 22.08 31.088 22.024 31.088H19.912V32.696H21.904C21.96 32.696 22.002 32.71 22.03 32.738C22.058 32.762 22.072 32.8 22.072 32.852C22.072 32.904 22.058 32.944 22.03 32.972C22.002 33 21.96 33.014 21.904 33.014H19.912V34.682H22.024C22.08 34.682 22.122 34.696 22.15 34.724C22.178 34.748 22.192 34.786 22.192 34.838C22.192 34.89 22.178 34.93 22.15 34.958C22.122 34.986 22.08 35 22.024 35H19.756ZM23.123 35.036C23.063 35.036 23.017 35.02 22.985 34.988C22.953 34.956 22.937 34.91 22.937 34.85V32.24C22.937 32.176 22.953 32.128 22.985 32.096C23.017 32.064 23.063 32.048 23.123 32.048C23.179 32.048 23.221 32.064 23.249 32.096C23.281 32.128 23.297 32.176 23.297 32.24V32.774H23.237C23.309 32.538 23.437 32.356 23.621 32.228C23.809 32.1 24.033 32.034 24.293 32.03C24.341 32.026 24.381 32.036 24.413 32.06C24.445 32.084 24.461 32.122 24.461 32.174C24.465 32.23 24.453 32.274 24.425 32.306C24.397 32.334 24.351 32.352 24.287 32.36L24.203 32.366C23.919 32.394 23.699 32.488 23.543 32.648C23.387 32.808 23.309 33.024 23.309 33.296V34.85C23.309 34.91 23.293 34.956 23.261 34.988C23.233 35.02 23.187 35.036 23.123 35.036ZM25.1738 35.036C25.1138 35.036 25.0678 35.02 25.0358 34.988C25.0038 34.956 24.9878 34.91 24.9878 34.85V32.24C24.9878 32.176 25.0038 32.128 25.0358 32.096C25.0678 32.064 25.1138 32.048 25.1738 32.048C25.2298 32.048 25.2718 32.064 25.2998 32.096C25.3318 32.128 25.3478 32.176 25.3478 32.24V32.774H25.2878C25.3598 32.538 25.4878 32.356 25.6718 32.228C25.8598 32.1 26.0838 32.034 26.3438 32.03C26.3918 32.026 26.4318 32.036 26.4638 32.06C26.4958 32.084 26.5118 32.122 26.5118 32.174C26.5158 32.23 26.5038 32.274 26.4758 32.306C26.4478 32.334 26.4018 32.352 26.3378 32.36L26.2538 32.366C25.9698 32.394 25.7498 32.488 25.5938 32.648C25.4378 32.808 25.3598 33.024 25.3598 33.296V34.85C25.3598 34.91 25.3438 34.956 25.3118 34.988C25.2838 35.02 25.2378 35.036 25.1738 35.036ZM28.1614 35.048C27.8894 35.048 27.6534 34.986 27.4534 34.862C27.2534 34.738 27.0974 34.564 26.9854 34.34C26.8774 34.116 26.8234 33.85 26.8234 33.542C26.8234 33.314 26.8534 33.108 26.9134 32.924C26.9774 32.74 27.0674 32.582 27.1834 32.45C27.3034 32.314 27.4454 32.212 27.6094 32.144C27.7774 32.072 27.9614 32.036 28.1614 32.036C28.4374 32.036 28.6754 32.098 28.8754 32.222C29.0754 32.346 29.2294 32.522 29.3374 32.75C29.4494 32.974 29.5054 33.238 29.5054 33.542C29.5054 33.774 29.4734 33.982 29.4094 34.166C29.3494 34.35 29.2594 34.508 29.1394 34.64C29.0234 34.772 28.8834 34.874 28.7194 34.946C28.5554 35.014 28.3694 35.048 28.1614 35.048ZM28.1614 34.742C28.3614 34.742 28.5334 34.696 28.6774 34.604C28.8254 34.508 28.9374 34.37 29.0134 34.19C29.0934 34.01 29.1334 33.794 29.1334 33.542C29.1334 33.162 29.0454 32.868 28.8694 32.66C28.6974 32.452 28.4614 32.348 28.1614 32.348C27.9654 32.348 27.7934 32.396 27.6454 32.492C27.5014 32.584 27.3894 32.72 27.3094 32.9C27.2334 33.076 27.1954 33.29 27.1954 33.542C27.1954 33.926 27.2834 34.222 27.4594 34.43C27.6354 34.638 27.8694 34.742 28.1614 34.742ZM30.4707 35.036C30.4107 35.036 30.3647 35.02 30.3327 34.988C30.3007 34.956 30.2847 34.91 30.2847 34.85V32.24C30.2847 32.176 30.3007 32.128 30.3327 32.096C30.3647 32.064 30.4107 32.048 30.4707 32.048C30.5267 32.048 30.5687 32.064 30.5967 32.096C30.6287 32.128 30.6447 32.176 30.6447 32.24V32.774H30.5847C30.6567 32.538 30.7847 32.356 30.9687 32.228C31.1567 32.1 31.3807 32.034 31.6407 32.03C31.6887 32.026 31.7287 32.036 31.7607 32.06C31.7927 32.084 31.8087 32.122 31.8087 32.174C31.8127 32.23 31.8007 32.274 31.7727 32.306C31.7447 32.334 31.6987 32.352 31.6347 32.36L31.5507 32.366C31.2667 32.394 31.0467 32.488 30.8907 32.648C30.7347 32.808 30.6567 33.024 30.6567 33.296V34.85C30.6567 34.91 30.6407 34.956 30.6087 34.988C30.5807 35.02 30.5347 35.036 30.4707 35.036ZM34.0452 35.036C33.9852 35.036 33.9392 35.02 33.9072 34.988C33.8752 34.956 33.8592 34.91 33.8592 34.85V32.24C33.8592 32.176 33.8752 32.128 33.9072 32.096C33.9392 32.064 33.9852 32.048 34.0452 32.048C34.1012 32.048 34.1432 32.064 34.1712 32.096C34.2032 32.128 34.2192 32.176 34.2192 32.24V32.81L34.1532 32.768C34.2252 32.532 34.3472 32.352 34.5192 32.228C34.6912 32.1 34.8972 32.036 35.1372 32.036C35.3932 32.036 35.5972 32.098 35.7492 32.222C35.9052 32.346 36.0072 32.532 36.0552 32.78H35.9652C36.0332 32.556 36.1592 32.376 36.3432 32.24C36.5312 32.104 36.7512 32.036 37.0032 32.036C37.2192 32.036 37.3972 32.078 37.5372 32.162C37.6812 32.246 37.7892 32.372 37.8612 32.54C37.9332 32.704 37.9692 32.912 37.9692 33.164V34.85C37.9692 34.91 37.9532 34.956 37.9212 34.988C37.8892 35.02 37.8432 35.036 37.7832 35.036C37.7272 35.036 37.6832 35.02 37.6512 34.988C37.6192 34.956 37.6032 34.91 37.6032 34.85V33.194C37.6032 32.902 37.5512 32.69 37.4472 32.558C37.3472 32.422 37.1772 32.354 36.9372 32.354C36.6812 32.354 36.4772 32.444 36.3252 32.624C36.1732 32.8 36.0972 33.04 36.0972 33.344V34.85C36.0972 34.91 36.0812 34.956 36.0492 34.988C36.0172 35.02 35.9732 35.036 35.9172 35.036C35.8572 35.036 35.8112 35.02 35.7792 34.988C35.7472 34.956 35.7312 34.91 35.7312 34.85V33.194C35.7312 32.902 35.6792 32.69 35.5752 32.558C35.4752 32.422 35.3072 32.354 35.0712 32.354C34.8112 32.354 34.6052 32.444 34.4532 32.624C34.3012 32.8 34.2252 33.04 34.2252 33.344V34.85C34.2252 34.974 34.1652 35.036 34.0452 35.036ZM40.1933 35.048C39.8933 35.048 39.6353 34.988 39.4193 34.868C39.2033 34.748 39.0373 34.576 38.9213 34.352C38.8053 34.128 38.7473 33.862 38.7473 33.554C38.7473 33.25 38.8053 32.986 38.9213 32.762C39.0373 32.534 39.1973 32.356 39.4013 32.228C39.6093 32.1 39.8473 32.036 40.1153 32.036C40.3113 32.036 40.4833 32.07 40.6313 32.138C40.7833 32.202 40.9113 32.296 41.0153 32.42C41.1233 32.54 41.2053 32.688 41.2613 32.864C41.3173 33.036 41.3453 33.232 41.3453 33.452C41.3453 33.508 41.3293 33.55 41.2973 33.578C41.2693 33.606 41.2293 33.62 41.1773 33.62H39.0113V33.35H41.1173L41.0213 33.428C41.0213 33.196 40.9873 33 40.9193 32.84C40.8513 32.676 40.7493 32.55 40.6133 32.462C40.4813 32.374 40.3173 32.33 40.1213 32.33C39.9013 32.33 39.7153 32.382 39.5633 32.486C39.4113 32.586 39.2973 32.726 39.2213 32.906C39.1453 33.082 39.1073 33.286 39.1073 33.518V33.548C39.1073 33.932 39.2013 34.228 39.3893 34.436C39.5773 34.64 39.8413 34.742 40.1813 34.742C40.3293 34.742 40.4713 34.722 40.6073 34.682C40.7473 34.642 40.8833 34.574 41.0153 34.478C41.0553 34.45 41.0933 34.436 41.1293 34.436C41.1693 34.436 41.2013 34.446 41.2253 34.466C41.2533 34.486 41.2713 34.512 41.2793 34.544C41.2913 34.572 41.2893 34.604 41.2733 34.64C41.2613 34.672 41.2353 34.702 41.1953 34.73C41.0673 34.834 40.9133 34.914 40.7333 34.97C40.5533 35.022 40.3733 35.048 40.1933 35.048ZM43.0393 35.048C42.8593 35.048 42.6793 35.024 42.4993 34.976C42.3233 34.928 42.1553 34.846 41.9953 34.73C41.9633 34.71 41.9413 34.686 41.9293 34.658C41.9213 34.626 41.9193 34.594 41.9233 34.562C41.9313 34.53 41.9453 34.504 41.9653 34.484C41.9893 34.46 42.0173 34.446 42.0493 34.442C42.0813 34.438 42.1153 34.448 42.1513 34.472C42.3073 34.576 42.4593 34.648 42.6073 34.688C42.7553 34.728 42.9033 34.748 43.0513 34.748C43.2953 34.748 43.4813 34.702 43.6093 34.61C43.7373 34.518 43.8013 34.394 43.8013 34.238C43.8013 34.11 43.7593 34.012 43.6753 33.944C43.5953 33.872 43.4633 33.814 43.2793 33.77L42.7573 33.65C42.5053 33.594 42.3193 33.504 42.1993 33.38C42.0793 33.252 42.0193 33.088 42.0193 32.888C42.0193 32.716 42.0633 32.566 42.1513 32.438C42.2433 32.31 42.3713 32.212 42.5353 32.144C42.7033 32.072 42.8953 32.036 43.1113 32.036C43.2873 32.036 43.4553 32.062 43.6153 32.114C43.7753 32.166 43.9153 32.246 44.0353 32.354C44.0673 32.378 44.0873 32.406 44.0953 32.438C44.1073 32.47 44.1073 32.502 44.0953 32.534C44.0873 32.562 44.0713 32.586 44.0473 32.606C44.0233 32.626 43.9953 32.636 43.9633 32.636C43.9313 32.636 43.8973 32.624 43.8613 32.6C43.7453 32.512 43.6233 32.448 43.4953 32.408C43.3673 32.364 43.2373 32.342 43.1053 32.342C42.8733 32.342 42.6933 32.39 42.5653 32.486C42.4413 32.582 42.3793 32.712 42.3793 32.876C42.3793 33 42.4173 33.1 42.4933 33.176C42.5733 33.252 42.6973 33.31 42.8653 33.35L43.3873 33.47C43.6473 33.53 43.8413 33.62 43.9693 33.74C44.0973 33.856 44.1613 34.014 44.1613 34.214C44.1613 34.47 44.0593 34.674 43.8553 34.826C43.6553 34.974 43.3833 35.048 43.0393 35.048ZM45.8566 35.048C45.6606 35.048 45.4846 35.01 45.3286 34.934C45.1766 34.858 45.0546 34.754 44.9626 34.622C44.8746 34.49 44.8306 34.342 44.8306 34.178C44.8306 33.962 44.8846 33.792 44.9926 33.668C45.1006 33.544 45.2826 33.458 45.5386 33.41C45.7946 33.358 46.1466 33.332 46.5946 33.332H46.8526V33.602H46.6006C46.2406 33.602 45.9586 33.618 45.7546 33.65C45.5546 33.678 45.4146 33.732 45.3346 33.812C45.2546 33.892 45.2146 34.004 45.2146 34.148C45.2146 34.328 45.2766 34.474 45.4006 34.586C45.5246 34.698 45.6926 34.754 45.9046 34.754C46.0766 34.754 46.2266 34.714 46.3546 34.634C46.4866 34.55 46.5906 34.436 46.6666 34.292C46.7426 34.148 46.7806 33.984 46.7806 33.8V33.116C46.7806 32.848 46.7266 32.654 46.6186 32.534C46.5106 32.41 46.3386 32.348 46.1026 32.348C45.9506 32.348 45.8026 32.368 45.6586 32.408C45.5186 32.448 45.3686 32.512 45.2086 32.6C45.1646 32.624 45.1246 32.632 45.0886 32.624C45.0566 32.616 45.0306 32.6 45.0106 32.576C44.9946 32.552 44.9826 32.524 44.9746 32.492C44.9706 32.456 44.9766 32.422 44.9926 32.39C45.0086 32.358 45.0366 32.332 45.0766 32.312C45.2446 32.22 45.4146 32.152 45.5866 32.108C45.7626 32.06 45.9326 32.036 46.0966 32.036C46.3326 32.036 46.5266 32.076 46.6786 32.156C46.8346 32.236 46.9486 32.356 47.0206 32.516C47.0966 32.676 47.1346 32.882 47.1346 33.134V34.85C47.1346 34.91 47.1206 34.956 47.0926 34.988C47.0646 35.02 47.0226 35.036 46.9666 35.036C46.9106 35.036 46.8666 35.02 46.8346 34.988C46.8026 34.956 46.7866 34.91 46.7866 34.85V34.298H46.8466C46.8106 34.454 46.7466 34.588 46.6546 34.7C46.5626 34.812 46.4486 34.898 46.3126 34.958C46.1766 35.018 46.0246 35.048 45.8566 35.048ZM49.3573 36.128C49.1413 36.128 48.9313 36.1 48.7273 36.044C48.5273 35.992 48.3453 35.906 48.1813 35.786C48.1493 35.766 48.1273 35.74 48.1153 35.708C48.1073 35.676 48.1073 35.644 48.1153 35.612C48.1233 35.584 48.1373 35.558 48.1573 35.534C48.1813 35.51 48.2073 35.496 48.2353 35.492C48.2673 35.488 48.2993 35.494 48.3313 35.51C48.5073 35.626 48.6753 35.706 48.8353 35.75C48.9993 35.798 49.1693 35.822 49.3453 35.822C49.6373 35.822 49.8593 35.74 50.0113 35.576C50.1633 35.416 50.2393 35.186 50.2393 34.886V34.142H50.2993C50.2393 34.39 50.1113 34.584 49.9153 34.724C49.7193 34.864 49.4873 34.934 49.2193 34.934C48.9513 34.934 48.7193 34.874 48.5233 34.754C48.3273 34.63 48.1753 34.46 48.0673 34.244C47.9633 34.024 47.9113 33.77 47.9113 33.482C47.9113 33.266 47.9413 33.07 48.0013 32.894C48.0613 32.718 48.1473 32.566 48.2593 32.438C48.3753 32.31 48.5133 32.212 48.6733 32.144C48.8333 32.072 49.0153 32.036 49.2193 32.036C49.4873 32.036 49.7193 32.108 49.9153 32.252C50.1113 32.392 50.2373 32.582 50.2933 32.822L50.2333 32.858V32.24C50.2333 32.176 50.2493 32.128 50.2813 32.096C50.3133 32.064 50.3573 32.048 50.4133 32.048C50.4733 32.048 50.5173 32.064 50.5453 32.096C50.5773 32.128 50.5933 32.176 50.5933 32.24V34.832C50.5933 35.26 50.4893 35.582 50.2813 35.798C50.0733 36.018 49.7653 36.128 49.3573 36.128ZM49.2613 34.622C49.4613 34.622 49.6333 34.576 49.7773 34.484C49.9253 34.388 50.0393 34.256 50.1193 34.088C50.1993 33.916 50.2393 33.714 50.2393 33.482C50.2393 33.134 50.1513 32.858 49.9753 32.654C49.7993 32.45 49.5613 32.348 49.2613 32.348C49.0613 32.348 48.8873 32.394 48.7393 32.486C48.5913 32.578 48.4773 32.71 48.3973 32.882C48.3213 33.05 48.2833 33.25 48.2833 33.482C48.2833 33.83 48.3713 34.108 48.5473 34.316C48.7233 34.52 48.9613 34.622 49.2613 34.622ZM52.8261 35.048C52.5261 35.048 52.2681 34.988 52.0521 34.868C51.8361 34.748 51.6701 34.576 51.5541 34.352C51.4381 34.128 51.3801 33.862 51.3801 33.554C51.3801 33.25 51.4381 32.986 51.5541 32.762C51.6701 32.534 51.8301 32.356 52.0341 32.228C52.2421 32.1 52.4801 32.036 52.7481 32.036C52.9441 32.036 53.1161 32.07 53.2641 32.138C53.4161 32.202 53.5441 32.296 53.6481 32.42C53.7561 32.54 53.8381 32.688 53.8941 32.864C53.9501 33.036 53.9781 33.232 53.9781 33.452C53.9781 33.508 53.9621 33.55 53.9301 33.578C53.9021 33.606 53.8621 33.62 53.8101 33.62H51.6441V33.35H53.7501L53.6541 33.428C53.6541 33.196 53.6201 33 53.5521 32.84C53.4841 32.676 53.3821 32.55 53.2461 32.462C53.1141 32.374 52.9501 32.33 52.7541 32.33C52.5341 32.33 52.3481 32.382 52.1961 32.486C52.0441 32.586 51.9301 32.726 51.8541 32.906C51.7781 33.082 51.7401 33.286 51.7401 33.518V33.548C51.7401 33.932 51.8341 34.228 52.0221 34.436C52.2101 34.64 52.4741 34.742 52.8141 34.742C52.9621 34.742 53.1041 34.722 53.2401 34.682C53.3801 34.642 53.5161 34.574 53.6481 34.478C53.6881 34.45 53.7261 34.436 53.7621 34.436C53.8021 34.436 53.8341 34.446 53.8581 34.466C53.8861 34.486 53.9041 34.512 53.9121 34.544C53.9241 34.572 53.9221 34.604 53.9061 34.64C53.8941 34.672 53.8681 34.702 53.8281 34.73C53.7001 34.834 53.5461 34.914 53.3661 34.97C53.1861 35.022 53.0061 35.048 52.8261 35.048Z" fill="black"/>
<rect x="15.5" y="29.5" width="70" height="7" stroke="black"/>
<path d="M7.06663 50.9333L1.06663 44.9333C0.533293 44.4 0.533293 43.5667 1.06663 43.0333L7.06663 37.0333C7.59996 36.5 8.43329 36.5 8.96663 37.0333L14.9666 43.0333C15.5 43.5667 15.5 44.4 14.9666 44.9333L8.96663 50.9333C8.43329 51.4667 7.56663 51.4667 7.06663 50.9333Z" fill="#F44336"/>
<path d="M7.19995 46.9C7.19995 46.8 7.23328 46.7 7.26662 46.6C7.29995 46.5 7.36662 46.4333 7.43328 46.3667C7.49995 46.3 7.59995 46.2333 7.69995 46.2C7.79995 46.1667 7.89995 46.1333 8.03328 46.1333C8.16662 46.1333 8.26662 46.1667 8.36662 46.2C8.46662 46.2333 8.56662 46.3 8.63328 46.3667C8.69995 46.4333 8.76662 46.5 8.79995 46.6C8.83328 46.7 8.86662 46.8 8.86662 46.9C8.86662 47 8.83328 47.1 8.79995 47.2C8.76662 47.3 8.69995 47.3667 8.63328 47.4333C8.56662 47.5 8.46662 47.5667 8.36662 47.6C8.26662 47.6333 8.16662 47.6667 8.03328 47.6667C7.89995 47.6667 7.79995 47.6333 7.69995 47.6C7.59995 47.5667 7.53328 47.5 7.43328 47.4333C7.36662 47.3667 7.29995 47.3 7.26662 47.2C7.23328 47.1 7.19995 47.0333 7.19995 46.9ZM8.59995 45.3667H7.39995L7.23328 40.3333H8.76662L8.59995 45.3667Z" fill="white"/>
<rect x="0.5" y="0.5" width="91" height="51" rx="4.5" stroke="#9747FF" stroke-dasharray="10 5"/>
<defs>
<clipPath id="clip0_72_416">
<rect width="16" height="16" fill="white"/>
</clipPath>
</defs>
</svg>
