<svg width="16" height="16" viewBox="0 0 16 16" fill="none" xmlns="http://www.w3.org/2000/svg">
<g clip-path="url(#clip0_280_1512)">
<path d="M7.06663 14.9333L1.06663 8.93333C0.533293 8.4 0.533293 7.56667 1.06663 7.03333L7.06663 1.03333C7.59996 0.499998 8.43329 0.499998 8.96663 1.03333L14.9666 7.03333C15.5 7.56667 15.5 8.4 14.9666 8.93333L8.96663 14.9333C8.43329 15.4667 7.56663 15.4667 7.06663 14.9333Z" fill="#F44336"/>
<path d="M7.19995 10.9C7.19995 10.8 7.23328 10.7 7.26662 10.6C7.29995 10.5 7.36662 10.4333 7.43328 10.3667C7.49995 10.3 7.59995 10.2333 7.69995 10.2C7.79995 10.1667 7.89995 10.1333 8.03328 10.1333C8.16662 10.1333 8.26662 10.1667 8.36662 10.2C8.46662 10.2333 8.56662 10.3 8.63328 10.3667C8.69995 10.4333 8.76662 10.5 8.79995 10.6C8.83328 10.7 8.86662 10.8 8.86662 10.9C8.86662 11 8.83328 11.1 8.79995 11.2C8.76662 11.3 8.69995 11.3667 8.63328 11.4333C8.56662 11.5 8.46662 11.5667 8.36662 11.6C8.26662 11.6333 8.16662 11.6667 8.03328 11.6667C7.89995 11.6667 7.79995 11.6333 7.69995 11.6C7.59995 11.5667 7.53328 11.5 7.43328 11.4333C7.36662 11.3667 7.29995 11.3 7.26662 11.2C7.23328 11.1 7.19995 11.0333 7.19995 10.9ZM8.59995 9.36668H7.39995L7.23328 4.33334H8.76662L8.59995 9.36668Z" fill="white"/>
</g>
<defs>
<clipPath id="clip0_280_1512">
<rect width="16" height="16" fill="white"/>
</clipPath>
</defs>
</svg>
