<svg width="100" height="100" viewBox="0 0 100 100" fill="none" xmlns="http://www.w3.org/2000/svg">
<path d="M57.9844 17.0938C47.5547 17.0938 38.7656 23.3203 34.5234 32.1406C32.2578 30.5781 29.6641 29.4453 26.7109 29.4453C19.2812 29.4453 13.3047 35.3281 12.8594 42.6484C5.41406 45.3438 0 52.3047 0 60.6562C0 71.3203 8.67969 80 19.3438 80H82.1953C92.0078 80 100 72.0078 100 62.1953C100 53.0938 93.0234 45.8359 84.1875 44.7969C84.2188 44.3281 84.2812 43.875 84.2812 43.3906C84.2812 28.8906 72.4844 17.0938 57.9844 17.0938ZM57.9844 21.0938C70.3281 21.0938 80.2812 31.0547 80.2812 43.3906C80.2812 44.3047 80.2109 45.2188 80.0938 46.1562L79.8125 48.3984H82.0781C82.3203 48.3984 82.3516 48.3984 82.1953 48.3984C89.8438 48.3984 96 54.5547 96 62.1953C96 69.8438 89.8438 76 82.1953 76H19.3438C10.8438 76 4 69.1562 4 60.6562C4 53.5859 8.77344 47.6797 15.25 45.8906L16.7734 45.4688L16.7188 43.8984C16.7109 43.6172 16.6953 43.4766 16.6953 43.4609C16.6953 37.9062 21.1562 33.4453 26.7109 33.4453C29.4922 33.4453 31.9844 34.5703 33.7969 36.3828L36 38.5938L37.0938 35.6641C40.2344 27.1719 48.3672 21.0938 57.9844 21.0938ZM48.6172 36C48.2188 36 47.9922 36.2266 47.9922 36.625V59.375C47.9922 59.7734 48.2188 60 48.6172 60H53.4688C53.8672 60 54.0312 59.7734 54.0312 59.375V36.625C54.0312 36.2266 53.8672 36 53.4688 36H48.6172ZM48.625 63.9922C48.2266 63.9922 48 64.1562 48 64.5547V69.375C48 69.7734 48.2266 70 48.625 70H53.3828C53.7812 70 54.0078 69.7734 54.0078 69.375V64.5547C54.0078 64.1562 53.7812 63.9922 53.3828 63.9922H48.625Z" fill="white"/>
</svg>
