<svg width="221" height="221" viewBox="0 0 221 221" fill="none" xmlns="http://www.w3.org/2000/svg">
<g clip-path="url(#clip0_401_1514)">
<path d="M110.5 0C112.41 0 113.953 1.547 113.953 3.45312V10.4471C166.425 12.2375 208.762 54.5722 210.553 107.047H217.547C219.456 107.047 221 108.594 221 110.5C221 112.406 219.456 113.953 217.547 113.953H210.553C208.762 166.428 166.425 208.763 113.953 210.553V217.547C113.953 219.453 112.41 221 110.5 221C108.59 221 107.047 219.453 107.047 217.547V210.553C54.5752 208.763 12.2376 166.428 10.4471 113.953H3.45312C1.54355 113.953 0 112.406 0 110.5C0 108.594 1.54355 107.047 3.45312 107.047H10.4471C12.2376 54.5722 54.5752 12.2375 107.047 10.4471V3.45312C107.047 1.547 108.59 0 110.5 0ZM113.953 17.3533V34.6189C153.101 36.3793 184.621 67.8989 186.381 107.047H203.647C201.862 58.382 162.618 19.1377 113.953 17.3533ZM107.047 17.3533C58.382 19.1377 19.1377 58.382 17.3533 107.047H34.6459C35.2189 94.3962 38.8937 82.0939 45.4302 71.2747C46.4143 69.6413 48.5312 69.1168 50.1715 70.1079C51.8048 71.0955 52.3259 73.2159 51.3383 74.8492C45.4542 84.5911 42.1261 95.6574 41.5589 107.047H62.3316C64.0327 83.1454 83.1454 64.0327 107.047 62.3316V41.5589C101.633 41.8265 96.2866 42.6891 91.1166 44.196C89.283 44.7312 87.3657 43.6723 86.834 41.8422C86.3022 40.012 87.3508 38.1015 89.181 37.5662C94.9761 35.8736 100.975 34.9249 107.047 34.6526V17.3533ZM114.048 41.5252C114.016 41.5236 113.984 41.5267 113.953 41.5252V62.3316C137.855 64.0327 156.967 83.1454 158.668 107.047H179.475C177.727 71.7402 149.342 43.3202 114.048 41.5252ZM73.1159 44.6478C74.4492 44.467 75.8278 45.0809 76.5555 46.3137C77.5258 47.9539 76.9852 50.0677 75.3415 51.0415C70.5037 53.9111 66.0038 57.3793 61.9809 61.3469C61.311 62.0099 60.4368 62.3451 59.5597 62.3451C58.6688 62.3451 57.7713 61.9969 57.098 61.3132C55.7616 59.9561 55.7779 57.7701 57.1384 56.4303C61.5619 52.0655 66.4997 48.2559 71.821 45.0997C72.2301 44.8571 72.6714 44.7081 73.1159 44.6478ZM113.953 69.2379V89.7812C113.953 91.6874 112.41 93.2344 110.5 93.2344C108.59 93.2344 107.047 91.6874 107.047 89.7812V69.2379C86.9539 70.908 70.908 86.9539 69.2379 107.047H89.7812C91.6908 107.047 93.2344 108.594 93.2344 110.5C93.2344 112.406 91.6908 113.953 89.7812 113.953H69.2379C70.908 134.046 86.9539 150.092 107.047 151.762V131.219C107.047 129.313 108.59 127.766 110.5 127.766C112.41 127.766 113.953 129.313 113.953 131.219V151.762C134.046 150.092 150.092 134.046 151.762 113.953H131.219C129.309 113.953 127.766 112.406 127.766 110.5C127.766 108.594 129.309 107.047 131.219 107.047H151.762C150.092 86.9539 134.046 70.908 113.953 69.2379ZM110.5 103.594C112.332 103.594 114.088 104.321 115.383 105.617C116.679 106.912 117.406 108.668 117.406 110.5C117.406 112.332 116.679 114.088 115.383 115.383C114.088 116.679 112.332 117.406 110.5 117.406C108.668 117.406 106.912 116.679 105.617 115.383C104.321 114.088 103.594 112.332 103.594 110.5C103.594 108.668 104.321 106.912 105.617 105.617C106.912 104.321 108.668 103.594 110.5 103.594ZM203.647 113.953H186.368C186.164 118.471 185.585 122.967 184.594 127.354C184.228 128.956 182.806 130.038 181.228 130.038C180.976 130.038 180.722 130.016 180.466 129.958C178.608 129.536 177.435 127.684 177.856 125.823C178.736 121.935 179.27 117.958 179.468 113.953H158.668C156.967 137.855 137.855 156.967 113.953 158.668V179.468C117.961 179.27 121.945 178.74 125.83 177.863C127.691 177.431 129.536 178.605 129.958 180.466C130.379 182.327 129.215 184.173 127.354 184.594C122.975 185.585 118.475 186.164 113.953 186.368V203.647C162.618 201.862 201.862 162.618 203.647 113.953ZM62.3316 113.953H41.5252C43.2746 149.291 71.709 177.725 107.047 179.475V158.668C83.1454 156.967 64.0327 137.855 62.3316 113.953ZM34.6189 113.953H17.3533C19.1377 162.618 58.382 201.862 107.047 203.647V186.381C67.8989 184.621 36.3793 153.101 34.6189 113.953ZM173.641 135.137C174.089 135.146 174.547 135.246 174.983 135.441L181.282 138.253C183.026 139.03 183.816 141.072 183.036 142.812C182.463 144.097 181.202 144.863 179.879 144.863C179.41 144.863 178.929 144.763 178.477 144.559L172.171 141.747C170.427 140.97 169.643 138.921 170.424 137.181C171.007 135.878 172.296 135.111 173.641 135.137ZM164.482 149.577C165.359 149.469 166.274 149.695 167.025 150.285L172.467 154.541C173.97 155.718 174.232 157.881 173.054 159.383C172.377 160.253 171.362 160.712 170.336 160.712C169.594 160.712 168.844 160.471 168.212 159.977L162.776 155.721C161.274 154.544 161.005 152.374 162.182 150.872C162.768 150.123 163.605 149.685 164.482 149.577ZM153.428 161.474C154.306 161.582 155.138 162.026 155.721 162.776L159.977 168.212C161.154 169.714 160.885 171.887 159.383 173.061C158.755 173.555 158.008 173.789 157.266 173.789C156.24 173.789 155.218 173.334 154.541 172.467L150.285 167.031C149.108 165.529 149.377 163.356 150.879 162.182C151.63 161.593 152.55 161.367 153.428 161.474ZM138.523 170.12C139.867 170.095 141.164 170.865 141.747 172.171L144.559 178.477C145.336 180.217 144.556 182.259 142.812 183.036C142.357 183.24 141.879 183.333 141.41 183.333C140.087 183.333 138.826 182.567 138.253 181.282L135.441 174.983C134.664 173.243 135.444 171.201 137.188 170.424C137.622 170.23 138.075 170.129 138.523 170.12Z" fill="#86A3B8"/>
</g>
<defs>
<clipPath id="clip0_401_1514">
<rect width="221" height="221" fill="white" transform="matrix(-1 0 0 1 221 0)"/>
</clipPath>
</defs>
</svg>
