<svg width="24" height="25" viewBox="0 0 24 25" fill="none" xmlns="http://www.w3.org/2000/svg">
<path d="M23.7798 13.4964L22.3772 11.2861L23.2065 8.80531C23.3219 8.46636 23.1813 8.09497 22.8712 7.91468L20.6031 6.60939L20.1849 4.02406C20.1272 3.67069 19.8279 3.40747 19.4745 3.39305L16.8567 3.29209L15.2846 1.19353C15.0719 0.908673 14.6825 0.814923 14.3652 0.966365L11.9998 2.09136L9.63438 0.966365C9.31347 0.814923 8.92765 0.908673 8.71131 1.19353L7.1428 3.29209L4.52501 3.39305C4.17164 3.40747 3.87236 3.67069 3.81467 4.02406L3.3964 6.60579L1.12837 7.91468C0.818278 8.09136 0.677653 8.46276 0.789432 8.8017L1.62236 11.2861L0.21972 13.4964C0.0286142 13.7993 0.079095 14.1923 0.335104 14.4411L2.22453 16.2548L2.01539 18.8618C1.98655 19.2188 2.2101 19.5433 2.55265 19.6442L5.06948 20.369L6.09352 22.7777C6.23414 23.1058 6.5839 23.2969 6.93366 23.2212L9.49737 22.6947L11.5238 24.3534C11.6608 24.4652 11.8303 24.5229 11.9998 24.5229C12.1692 24.5229 12.3351 24.4652 12.4757 24.3534L14.5022 22.6947L17.0659 23.2212C17.4156 23.2969 17.769 23.1094 17.906 22.7777L18.9301 20.369L21.4469 19.6442C21.7894 19.5469 22.013 19.2188 21.9841 18.8618L21.775 16.2548L23.6644 14.4411C23.9204 14.1923 23.9709 13.7993 23.7798 13.4964ZM17.4265 9.88704L12.1728 17.7584C11.9745 18.0505 11.6644 18.2488 11.3615 18.2488C11.0551 18.2488 10.7161 18.0757 10.4962 17.8594L6.6416 13.9399C6.37837 13.6731 6.37837 13.2404 6.6416 12.97L7.59352 12.0036C7.85674 11.7368 8.28222 11.7368 8.54544 12.0036L11.0551 14.5529L15.1945 8.35098C15.4 8.03728 15.8219 7.95795 16.1284 8.17069L17.2462 8.93872C17.5527 9.14786 17.632 9.57694 17.4265 9.88704Z" fill="#CCCCCC"/>
</svg>
