<svg width="18" height="18" viewBox="0 0 18 18" fill="none" xmlns="http://www.w3.org/2000/svg">
<path d="M9 0C4.03832 0 0 4.03832 0 9C0 13.9617 4.03832 18 9 18C13.9617 18 18 13.9617 18 9C18 4.03832 13.9617 0 9 0ZM9 1.5C13.151 1.5 16.5 4.84898 16.5 9C16.5 13.151 13.151 16.5 9 16.5C4.84898 16.5 1.5 13.151 1.5 9C1.5 4.84898 4.84898 1.5 9 1.5ZM6.53027 5.46973L5.46973 6.53027L7.93945 9L5.46973 11.4697L6.53027 12.5303L9 10.0605L11.4697 12.5303L12.5303 11.4697L10.0605 9L12.5303 6.53027L11.4697 5.46973L9 7.93945L6.53027 5.46973Z" fill="black"/>
</svg>
