<svg width="24" height="24" viewBox="0 0 24 24" fill="none" xmlns="http://www.w3.org/2000/svg">
<path d="M3.375 2.25C2.75537 2.25 2.25 2.75537 2.25 3.375V20.625C2.25 21.2446 2.75537 21.75 3.375 21.75H20.625C21.2446 21.75 21.75 21.2446 21.75 20.625V6.62109C21.75 6.12012 21.5552 5.6499 21.2007 5.29541L18.7046 2.79932C18.3516 2.44482 17.8799 2.25 17.3789 2.25H3.375ZM3.375 3H5.25V8.625C5.25 9.24463 5.75537 9.75 6.375 9.75H16.125C16.7446 9.75 17.25 9.24463 17.25 8.625V3H17.3789C17.6807 3 17.9619 3.11719 18.1743 3.32959L20.6704 5.82568C20.8799 6.03516 21 6.3252 21 6.62109V20.625C21 20.8315 20.8315 21 20.625 21H18.75V12.375C18.75 11.7554 18.2446 11.25 17.625 11.25H6.375C5.75537 11.25 5.25 11.7554 5.25 12.375V21H3.375C3.16846 21 3 20.8315 3 20.625V3.375C3 3.16846 3.16846 3 3.375 3ZM6 3H16.5V8.625C16.5 8.83154 16.3315 9 16.125 9H6.375C6.16846 9 6 8.83154 6 8.625V3ZM14.625 3.75C14.0054 3.75 13.5 4.25537 13.5 4.875V7.125C13.5 7.74463 14.0054 8.25 14.625 8.25C15.2446 8.25 15.75 7.74463 15.75 7.125V4.875C15.75 4.25537 15.2446 3.75 14.625 3.75ZM14.625 4.5C14.8315 4.5 15 4.66846 15 4.875V7.125C15 7.33154 14.8315 7.5 14.625 7.5C14.4185 7.5 14.25 7.33154 14.25 7.125V4.875C14.25 4.66846 14.4185 4.5 14.625 4.5ZM6.375 12H17.625C17.8315 12 18 12.1685 18 12.375V21H6V12.375C6 12.1685 6.16846 12 6.375 12ZM7.875 13.5C7.66699 13.5 7.5 13.667 7.5 13.875C7.5 14.083 7.66699 14.25 7.875 14.25H13.125C13.333 14.25 13.5 14.083 13.5 13.875C13.5 13.667 13.333 13.5 13.125 13.5H7.875ZM14.625 13.5C14.417 13.5 14.25 13.667 14.25 13.875C14.25 14.083 14.417 14.25 14.625 14.25H16.125C16.333 14.25 16.5 14.083 16.5 13.875C16.5 13.667 16.333 13.5 16.125 13.5H14.625ZM7.875 15C7.66699 15 7.5 15.167 7.5 15.375C7.5 15.583 7.66699 15.75 7.875 15.75H14.625C14.833 15.75 15 15.583 15 15.375C15 15.167 14.833 15 14.625 15H7.875ZM7.125 18C6.91699 18 6.75 18.167 6.75 18.375V19.125C6.75 19.333 6.91699 19.5 7.125 19.5C7.33301 19.5 7.5 19.333 7.5 19.125V18.375C7.5 18.167 7.33301 18 7.125 18ZM9 18C8.79199 18 8.625 18.167 8.625 18.375V19.125C8.625 19.333 8.79199 19.5 9 19.5C9.20801 19.5 9.375 19.333 9.375 19.125V18.375C9.375 18.167 9.20801 18 9 18ZM10.875 18C10.667 18 10.5 18.167 10.5 18.375V19.125C10.5 19.333 10.667 19.5 10.875 19.5C11.083 19.5 11.25 19.333 11.25 19.125V18.375C11.25 18.167 11.083 18 10.875 18ZM12.75 18C12.542 18 12.375 18.167 12.375 18.375V19.125C12.375 19.333 12.542 19.5 12.75 19.5C12.958 19.5 13.125 19.333 13.125 19.125V18.375C13.125 18.167 12.958 18 12.75 18ZM14.625 18C14.417 18 14.25 18.167 14.25 18.375V19.125C14.25 19.333 14.417 19.5 14.625 19.5C14.833 19.5 15 19.333 15 19.125V18.375C15 18.167 14.833 18 14.625 18ZM16.5 18C16.292 18 16.125 18.167 16.125 18.375V19.125C16.125 19.333 16.292 19.5 16.5 19.5C16.708 19.5 16.875 19.333 16.875 19.125V18.375C16.875 18.167 16.708 18 16.5 18Z" fill="black"/>
</svg>
