<svg width="16" height="16" viewBox="0 0 16 16" fill="none" xmlns="http://www.w3.org/2000/svg">
<g clip-path="url(#clip0_188_1283)">
<path d="M8.00001 0.639999C3.93505 0.639999 0.640015 3.93504 0.640015 8C0.640015 12.065 3.93505 15.36 8.00001 15.36C12.065 15.36 15.36 12.065 15.36 8C15.36 3.93504 12.065 0.639999 8.00001 0.639999ZM8.00001 3.52C8.53025 3.52 8.96001 3.94976 8.96001 4.48C8.96001 5.01024 8.53025 5.44 8.00001 5.44C7.46977 5.44 7.04001 5.01024 7.04001 4.48C7.04001 3.94976 7.46977 3.52 8.00001 3.52ZM9.28001 12.16H8.64001H7.36001H6.72001V11.52H7.36001V7.36H6.72001V6.72H7.36001H8.64001V7.36V11.52H9.28001V12.16Z" fill="black"/>
</g>
<defs>
<clipPath id="clip0_188_1283">
<rect width="16" height="16" fill="white"/>
</clipPath>
</defs>
</svg>
