<svg width="217" height="64" viewBox="0 0 217 64" fill="none" xmlns="http://www.w3.org/2000/svg">
<path d="M50.6667 8.00033H39.5093C38.408 4.89899 35.4773 2.66699 32 2.66699C28.5227 2.66699 25.592 4.89899 24.4907 8.00033H13.3333C10.3867 8.00033 8 10.387 8 13.3337V50.667C8 53.6137 10.3867 56.0003 13.3333 56.0003H50.6667C53.6133 56.0003 56 53.6137 56 50.667V13.3337C56 10.387 53.6133 8.00033 50.6667 8.00033ZM32 8.00033C33.472 8.00033 34.6667 9.19499 34.6667 10.667C34.6667 12.139 33.472 13.3337 32 13.3337C30.528 13.3337 29.3333 12.139 29.3333 10.667C29.3333 9.19499 30.528 8.00033 32 8.00033ZM32 21.3337C35.0213 21.3337 37.3333 23.6457 37.3333 26.667C37.3333 29.6883 35.0213 32.0003 32 32.0003C28.9787 32.0003 26.6667 29.6883 26.6667 26.667C26.6667 23.6457 28.9787 21.3337 32 21.3337ZM42.6667 42.667H21.3333C21.3333 42.2483 21.3333 41.003 21.3333 40.579C21.3333 37.091 26.1733 34.667 32 34.667C37.8267 34.667 42.6667 37.091 42.6667 40.579C42.6667 41.003 42.6667 42.2483 42.6667 42.667Z" fill="#86A3B8"/>
<path d="M78.2032 28C77.8028 28 77.4327 27.9029 77.093 27.7088C76.7654 27.5147 76.5045 27.2538 76.3104 26.9262C76.1163 26.5865 76.0192 26.2164 76.0192 25.816V17.08C76.0192 16.6796 76.1163 16.3156 76.3104 15.988C76.5045 15.6483 76.7654 15.3813 77.093 15.1872C77.4327 14.9931 77.8028 14.896 78.2032 14.896H89.0868V16.3702H78.2032C78.0091 16.3702 77.8392 16.443 77.6936 16.5886C77.5601 16.7221 77.4934 16.8859 77.4934 17.08V25.816C77.4934 26.0101 77.5601 26.18 77.6936 26.3256C77.8392 26.4591 78.0091 26.5258 78.2032 26.5258H89.0868V28H78.2032ZM98.1916 28L90.6022 14.896H92.3312L99.047 26.5622L105.745 14.896H107.474L99.9024 28H98.1916ZM76.0192 49V35.9142H86.9392C87.3396 35.9142 87.7036 36.0173 88.0312 36.2236C88.3709 36.4177 88.6379 36.6786 88.832 37.0062C89.0261 37.3338 89.1232 37.6978 89.1232 38.0982V41.9384C89.1232 42.3388 89.0261 42.7028 88.832 43.0304C88.6379 43.358 88.3709 43.6249 88.0312 43.8312C87.7036 44.0253 87.3396 44.1224 86.9392 44.1224H77.4934V49H76.0192ZM78.2032 42.63H86.9392C87.1333 42.63 87.2971 42.5633 87.4306 42.4298C87.5762 42.2963 87.649 42.1325 87.649 41.9384V38.0982C87.649 37.9041 87.5762 37.7403 87.4306 37.6068C87.2971 37.4612 87.1333 37.3884 86.9392 37.3884H78.2032C78.0091 37.3884 77.8392 37.4612 77.6936 37.6068C77.5601 37.7403 77.4934 37.9041 77.4934 38.0982V41.9384C77.4934 42.1325 77.5601 42.2963 77.6936 42.4298C77.8392 42.5633 78.0091 42.63 78.2032 42.63ZM90.3429 49V40.6462C90.3429 40.2458 90.44 39.8818 90.6341 39.5542C90.8404 39.2145 91.1073 38.9475 91.4349 38.7534C91.7746 38.5471 92.1447 38.444 92.5451 38.444H98.4783V39.9364H92.5451C92.351 39.9364 92.1811 40.0092 92.0355 40.1548C91.902 40.2883 91.8353 40.4521 91.8353 40.6462V49H90.3429ZM101.751 49C101.351 49 100.981 48.9029 100.641 48.7088C100.313 48.5025 100.047 48.2356 99.8403 47.908C99.6462 47.5683 99.5491 47.1982 99.5491 46.7978V40.6462C99.5491 40.2458 99.6462 39.8818 99.8403 39.5542C100.047 39.2145 100.313 38.9475 100.641 38.7534C100.981 38.5471 101.351 38.444 101.751 38.444H108.085C108.497 38.444 108.868 38.5471 109.195 38.7534C109.535 38.9475 109.802 39.2145 109.996 39.5542C110.202 39.8818 110.305 40.2458 110.305 40.6462V46.7978C110.305 47.1982 110.202 47.5683 109.996 47.908C109.802 48.2356 109.535 48.5025 109.195 48.7088C108.868 48.9029 108.497 49 108.085 49H101.751ZM101.751 47.5076H108.085C108.279 47.5076 108.443 47.4409 108.576 47.3074C108.722 47.1618 108.795 46.9919 108.795 46.7978V40.6462C108.795 40.4521 108.722 40.2883 108.576 40.1548C108.443 40.0092 108.279 39.9364 108.085 39.9364H101.751C101.557 39.9364 101.387 40.0092 101.242 40.1548C101.108 40.2883 101.041 40.4521 101.041 40.6462V46.7978C101.041 46.9919 101.108 47.1618 101.242 47.3074C101.387 47.4409 101.557 47.5076 101.751 47.5076ZM112.187 49V37.1882C112.187 36.7757 112.284 36.4056 112.478 36.078C112.672 35.7383 112.933 35.4713 113.261 35.2772C113.6 35.0831 113.977 34.986 114.389 34.986H118.247V36.4784H114.389C114.195 36.4784 114.025 36.5512 113.879 36.6968C113.746 36.8303 113.679 36.9941 113.679 37.1882V38.444H118.247V39.9364H113.679V49H112.187ZM119.58 49V38.444H121.073V49H119.58ZM119.58 36.4784V34.986H121.073V36.4784H119.58ZM125.568 49C125.168 49 124.798 48.9029 124.458 48.7088C124.13 48.5025 123.863 48.2356 123.657 47.908C123.463 47.5683 123.366 47.1982 123.366 46.7978V34.986H124.858V46.7978C124.858 46.9919 124.925 47.1618 125.059 47.3074C125.204 47.4409 125.374 47.5076 125.568 47.5076H127.352V49H125.568ZM130.775 49C130.375 49 130.005 48.9029 129.665 48.7088C129.338 48.5025 129.071 48.2356 128.864 47.908C128.67 47.5683 128.573 47.1982 128.573 46.7978V40.6462C128.573 40.2458 128.67 39.8818 128.864 39.5542C129.071 39.2145 129.338 38.9475 129.665 38.7534C130.005 38.5471 130.375 38.444 130.775 38.444H137.109C137.521 38.444 137.892 38.5471 138.219 38.7534C138.559 38.9475 138.826 39.2145 139.02 39.5542C139.226 39.8818 139.329 40.2458 139.329 40.6462V44.4682H130.066V46.7978C130.066 46.9919 130.132 47.1618 130.266 47.3074C130.411 47.4409 130.581 47.5076 130.775 47.5076H139.329V49H130.775ZM130.066 42.9758H137.819V40.6462C137.819 40.4521 137.746 40.2883 137.6 40.1548C137.467 40.0092 137.303 39.9364 137.109 39.9364H130.775C130.581 39.9364 130.411 40.0092 130.266 40.1548C130.132 40.2883 130.066 40.4521 130.066 40.6462V42.9758Z" fill="#86A3B8"/>
</svg>
