<svg width="64" height="64" viewBox="0 0 64 64" fill="none" xmlns="http://www.w3.org/2000/svg">
<path d="M32 1.28027C29.185 1.28027 26.88 3.58527 26.88 6.40027V7.68027H15.36C13.255 7.68027 11.52 9.41527 11.52 11.5203V58.8803C11.52 60.9853 13.255 62.7203 15.36 62.7203H48.64C50.745 62.7203 52.48 60.9853 52.48 58.8803V11.5203C52.48 9.41527 50.745 7.68027 48.64 7.68027H37.12V6.40027C37.12 3.58527 34.815 1.28027 32 1.28027ZM32 3.84027C33.43 3.84027 34.56 4.97027 34.56 6.40027V8.72027C34.56 8.76027 34.56 8.80027 34.56 8.84027V8.96027C34.55 9.05527 34.55 9.14527 34.56 9.24027V11.5203H29.44V9.20027C29.475 9.03027 29.475 8.85027 29.44 8.68027V6.40027C29.44 4.97027 30.57 3.84027 32 3.84027ZM32 5.12027C31.295 5.12027 30.72 5.69527 30.72 6.40027C30.72 7.10527 31.295 7.68027 32 7.68027C32.705 7.68027 33.28 7.10527 33.28 6.40027C33.28 5.69527 32.705 5.12027 32 5.12027ZM15.36 10.2403H26.88V12.8003C26.88 13.5053 27.455 14.0803 28.16 14.0803H35.84C36.545 14.0803 37.12 13.5053 37.12 12.8003V10.2403H48.64C49.365 10.2403 49.92 10.7953 49.92 11.5203V58.8803C49.92 59.6053 49.365 60.1603 48.64 60.1603H15.36C14.635 60.1603 14.08 59.6053 14.08 58.8803V11.5203C14.08 10.7953 14.635 10.2403 15.36 10.2403ZM31.92 17.9203C29.225 17.9703 27.245 19.1703 26.44 21.0003C25.72 22.6353 25.855 24.5353 26.28 26.4403C26.025 26.8703 25.885 27.4053 25.96 28.0403C26.05 28.7903 26.265 29.4053 26.64 29.8803C26.755 30.0253 26.94 30.0103 27.08 30.1203C27.205 30.6603 27.335 31.2003 27.56 31.6403C27.71 31.9403 27.855 32.1953 28.04 32.4403C28.06 32.4653 28.1 32.4953 28.12 32.5203C28.125 32.9803 28.11 33.4153 28.08 33.8803C27.995 34.0503 27.81 34.2803 27.24 34.5603C26.625 34.8653 25.735 35.1603 24.8 35.5603C23.865 35.9603 22.88 36.4753 22.04 37.3203C21.2 38.1653 20.57 39.3853 20.48 40.8803C20.46 41.2353 20.585 41.5803 20.825 41.8353C21.07 42.0953 21.405 42.2403 21.76 42.2403H42.24C42.595 42.2403 42.93 42.0953 43.175 41.8353C43.415 41.5803 43.54 41.2353 43.52 40.8803C43.43 39.3853 42.8 38.1703 41.96 37.3203C41.12 36.4703 40.135 35.9603 39.2 35.5603C38.265 35.1603 37.37 34.8653 36.76 34.5603C36.195 34.2803 36.005 34.0503 35.92 33.8803C35.89 33.4153 35.875 32.9803 35.88 32.5203C35.905 32.4853 35.975 32.4753 36 32.4403C36.18 32.1903 36.33 31.9003 36.48 31.6003C36.695 31.1603 36.8 30.6503 36.92 30.1203C37.06 30.0103 37.245 30.0253 37.36 29.8803C37.735 29.4053 37.95 28.7903 38.04 28.0403C38.12 27.3803 37.955 26.8403 37.68 26.4003C37.94 25.4803 38.27 24.3503 38.16 22.9603C38.095 22.1003 37.855 21.1953 37.28 20.4003C36.755 19.6753 35.905 19.1753 34.88 18.9603C34.095 18.2553 33.075 17.9203 31.96 17.9203C31.945 17.9203 31.935 17.9203 31.92 17.9203ZM31.96 20.4803C32.925 20.4803 33.335 20.7903 33.32 20.7603C33.51 21.1053 33.85 21.3403 34.24 21.4003C34.825 21.4803 35.05 21.6603 35.24 21.9203C35.43 22.1803 35.555 22.6053 35.6 23.1603C35.685 24.2703 35.33 25.7303 35.12 26.3603C34.96 26.8453 35.1 27.3803 35.48 27.7203C35.48 27.7353 35.48 27.7453 35.48 27.7603C35.435 28.1303 35.375 28.1753 35.36 28.2003C34.91 28.3803 34.6 28.8003 34.56 29.2803C34.525 29.6203 34.345 30.1003 34.16 30.4803C34.065 30.6703 33.985 30.8303 33.92 30.9203C33.535 31.1603 33.31 31.5853 33.32 32.0403C33.32 32.7953 33.315 33.4553 33.4 34.4003C33.4 34.5103 33.415 34.6153 33.44 34.7203C33.85 35.8103 34.79 36.4153 35.64 36.8403C36.49 37.2653 37.39 37.5753 38.2 37.9203C39.01 38.2653 39.695 38.6553 40.16 39.1203C40.295 39.2553 40.295 39.5253 40.4 39.6803H23.6C23.705 39.5253 23.705 39.2553 23.84 39.1203C24.305 38.6503 25.03 38.2653 25.84 37.9203C26.65 37.5753 27.545 37.2653 28.4 36.8403C29.255 36.4153 30.15 35.8103 30.56 34.7203C30.6 34.6153 30.625 34.5103 30.64 34.4003C30.725 33.4553 30.68 32.7953 30.68 32.0403C30.695 31.6353 30.515 31.2503 30.2 31.0003C30.195 31.0003 30.135 30.9703 30.12 30.9603C30.08 30.9303 30.04 30.9053 30 30.8803C30.065 30.9153 30.09 30.9053 30.12 30.9203C30.05 30.8303 29.935 30.6703 29.84 30.4803C29.65 30.1003 29.475 29.6103 29.44 29.2803C29.4 28.8003 29.09 28.3803 28.64 28.2003C28.63 28.1803 28.565 28.0953 28.52 27.7203C28.855 27.4003 28.995 26.9303 28.88 26.4803C28.395 24.6253 28.385 22.9803 28.8 22.0403C29.215 21.1003 29.885 20.5203 31.96 20.4803ZM22.8 46.0803C22.095 46.1453 21.575 46.7753 21.64 47.4803C21.705 48.1853 22.335 48.7053 23.04 48.6403H40.96C41.42 48.6453 41.85 48.4053 42.085 48.0053C42.315 47.6053 42.315 47.1153 42.085 46.7153C41.85 46.3153 41.42 46.0753 40.96 46.0803H23.04C23 46.0803 22.96 46.0803 22.92 46.0803C22.88 46.0803 22.84 46.0803 22.8 46.0803ZM22.8 51.2003C22.095 51.2653 21.575 51.8953 21.64 52.6003C21.705 53.3053 22.335 53.8253 23.04 53.7603H40.96C41.42 53.7653 41.85 53.5253 42.085 53.1253C42.315 52.7253 42.315 52.2353 42.085 51.8353C41.85 51.4353 41.42 51.1953 40.96 51.2003H23.04C23 51.2003 22.96 51.2003 22.92 51.2003C22.88 51.2003 22.84 51.2003 22.8 51.2003Z" fill="black"/>
</svg>
