<svg width="24" height="24" viewBox="0 0 24 24" fill="none" xmlns="http://www.w3.org/2000/svg">
<g clip-path="url(#clip0_38_233)">
<path d="M15.1875 0C9.21093 0 9.95312 4.79297 8.53125 6.40625C8.26172 6.15234 7.89843 6 7.5 6C6.67187 6 6 6.67188 6 7.5C6 8.32812 6.67187 9 7.5 9C8.04296 9 8.51953 8.71484 8.78125 8.28125C11.5039 5.26172 10.3594 2 14.9062 2L16.1875 0.59375L15.9062 0.3125C15.707 0.113281 15.4883 0 15.1875 0ZM21.8125 0.03125C21.25 0.03125 20.7109 0.238281 20.3125 0.6875L19.5 1.5L22.5937 4.59375L23.4062 3.8125C24.3047 2.91406 24.3047 1.48828 23.4062 0.6875C22.957 0.238281 22.375 0.03125 21.8125 0.03125ZM17.25 1.59375L3.40625 15.4688L3.4375 15.5L0.312497 22.0938L0.531247 22.3125L-3.14787e-06 23.5938C-0.101566 23.793 0.105466 24.1016 0.406247 24L1.6875 23.4688L1.90625 23.6875L8.59375 20.5L8.5625 20.4688L22.3437 6.6875L17.25 1.59375ZM3.8125 17.0938L6.90625 20.1875L2.09375 22.5L1.5 21.9062L3.8125 17.0938Z" fill="black"/>
</g>
<defs>
<clipPath id="clip0_38_233">
<rect width="24" height="24" fill="white"/>
</clipPath>
</defs>
</svg>
