<svg width="24" height="24" viewBox="0 0 24 24" fill="none" xmlns="http://www.w3.org/2000/svg">
<path d="M8.61539 0C5.28923 0 2.47171 2.39575 1.55048 5.67708C1.90863 5.65842 2.35131 5.63852 2.875 5.61719C3.76238 3.11585 5.99815 1.33333 8.61539 1.33333C12.0086 1.33333 14.7692 4.324 14.7692 8C14.7692 11.676 12.0086 14.6667 8.61539 14.6667C5.98831 14.6667 3.746 12.8702 2.86538 10.3542C2.34169 10.3288 1.90022 10.3059 1.54207 10.2839C2.45161 13.5852 5.27569 16 8.61539 16C12.6874 16 16 12.4113 16 8C16 3.58867 12.6874 0 8.61539 0ZM6.48317 5.33333C6.42748 5.33042 6.37048 5.34403 6.31971 5.3737C6.21756 5.43303 6.15385 5.54911 6.15385 5.67578V6.83333C6.15385 6.83333 0.388442 7.02989 0.276442 7.11589C0.111519 7.24322 0 7.6547 0 7.9987C0 8.34203 0.111519 8.70537 0.276442 8.83203C0.387827 8.9187 6.15385 9.16667 6.15385 9.16667V10.3255C6.15385 10.4515 6.21817 10.5663 6.31971 10.6263C6.42187 10.6856 6.54583 10.6794 6.64183 10.6094C7.88552 9.69671 9.11977 8.27291 9.16346 8.21224C9.209 8.14957 9.23077 8.07467 9.23077 8C9.23077 7.92467 9.20777 7.84909 9.16346 7.78776C9.11915 7.72776 7.88552 6.30329 6.64183 5.39062C6.59352 5.35529 6.53887 5.33625 6.48317 5.33333Z" fill="#86A3B8" fill-opacity="0.5"/>
</svg>
