<svg width="64" height="64" viewBox="0 0 64 64" fill="none" xmlns="http://www.w3.org/2000/svg">
<path d="M34.1998 53C30.9998 47.4 24.9498 43.6 17.9998 43.6C11.0498 43.6 4.9998 47.4 1.7998 53.05L1.8498 54.55H34.1498L34.1998 53ZM17.9998 20C15.6792 20 13.4536 20.9219 11.8126 22.5628C10.1717 24.2038 9.2498 26.4294 9.2498 28.75C9.2498 31.0706 10.1717 33.2962 11.8126 34.9372C13.4536 36.5781 15.6792 37.5 17.9998 37.5C20.3204 37.5 22.546 36.5781 24.187 34.9372C25.8279 33.2962 26.7498 31.0706 26.7498 28.75C26.7498 26.4294 25.8279 24.2038 24.187 22.5628C22.546 20.9219 20.3204 20 17.9998 20Z" fill="white"/>
<path d="M18 38.95C12.35 38.95 7.74998 34.35 7.74998 28.7C7.74998 23.35 11.95 18.85 17.3 18.5C18.15 18.45 18.85 19.05 18.9 19.9C18.95 20.75 18.35 21.45 17.5 21.5C13.7 21.75 10.75 24.9 10.75 28.7C10.75 32.7 14 35.95 18 35.95C19.3 35.95 20.6 35.6 21.7 34.95C22.4 34.55 23.35 34.75 23.75 35.45C24.15 36.15 23.95 37.1 23.25 37.5C21.65 38.45 19.85 38.95 18 38.95ZM1.79998 54.5C1.54998 54.5 1.29998 54.45 1.04998 54.3C0.349981 53.9 0.0999813 53 0.499981 52.25C3.09998 47.65 7.49998 44.2 12.6 42.8C13.4 42.6 14.2 43.05 14.45 43.85C14.65 44.65 14.2 45.5 13.4 45.7C9.09998 46.9 5.34998 49.85 3.09998 53.75C2.84998 54.25 2.34998 54.5 1.79998 54.5Z" fill="#D3D8DD"/>
<path d="M29.7998 53C32.9998 47.4 39.0498 43.6 45.9998 43.6C52.9498 43.6 58.9998 47.4 62.1998 53.05L62.1498 54.55H29.8498L29.7998 53ZM45.9998 20C43.6792 20 41.4536 20.9219 39.8126 22.5628C38.1717 24.2038 37.2498 26.4294 37.2498 28.75C37.2498 31.0706 38.1717 33.2962 39.8126 34.9372C41.4536 36.5781 43.6792 37.5 45.9998 37.5C48.3204 37.5 50.546 36.5781 52.187 34.9372C53.8279 33.2962 54.7498 31.0706 54.7498 28.75C54.7498 26.4294 53.8279 24.2038 52.187 22.5628C50.546 20.9219 48.3204 20 45.9998 20Z" fill="white"/>
<path d="M45.9998 38.95C44.1498 38.95 42.3498 38.45 40.7998 37.5C40.0998 37.1 39.8498 36.15 40.2998 35.45C40.6998 34.75 41.6498 34.5 42.3498 34.95C43.4498 35.6 44.7498 35.95 46.0498 35.95C50.0498 35.95 53.2998 32.7 53.2998 28.7C53.2998 24.9 50.3498 21.75 46.5498 21.5C45.6998 21.45 45.0998 20.75 45.1498 19.9C45.1998 19.05 45.8998 18.45 46.7498 18.5C52.0998 18.85 56.2998 23.35 56.2998 28.7C56.2498 34.4 51.6498 38.95 45.9998 38.95ZM62.1998 54.5C61.6998 54.5 61.1498 54.25 60.8998 53.75C58.6998 49.85 54.9498 46.9 50.5998 45.7C49.7998 45.5 49.3498 44.65 49.5498 43.85C49.7498 43.05 50.5998 42.6 51.3998 42.8C56.4498 44.2 60.8498 47.65 63.4998 52.25C63.8998 52.95 63.6498 53.9 62.9498 54.3C62.6998 54.45 62.4498 54.5 62.1998 54.5Z" fill="#D3D8DD"/>
<path d="M50.5502 52.8C46.8502 46.35 39.9502 42 32.0002 42C24.0502 42 17.1502 46.35 13.4502 52.8L13.5002 54.5H50.5002L50.5502 52.8ZM32.0002 15C29.348 15 26.8045 16.0536 24.9291 17.9289C23.0538 19.8043 22.0002 22.3478 22.0002 25C22.0002 27.6522 23.0538 30.1957 24.9291 32.0711C26.8045 33.9464 29.348 35 32.0002 35C34.6524 35 37.1959 33.9464 39.0713 32.0711C40.9466 30.1957 42.0002 27.6522 42.0002 25C42.0002 22.3478 40.9466 19.8043 39.0713 17.9289C37.1959 16.0536 34.6524 15 32.0002 15Z" fill="white"/>
<path d="M31.9999 36.5C25.6499 36.5 20.4999 31.35 20.4999 25C20.4999 18.65 25.6499 13.5 31.9999 13.5C38.3499 13.5 43.4999 18.65 43.4999 25C43.4999 31.35 38.3499 36.5 31.9999 36.5ZM31.9999 16.5C27.2999 16.5 23.4999 20.3 23.4999 25C23.4999 29.7 27.2999 33.5 31.9999 33.5C36.6999 33.5 40.4999 29.7 40.4999 25C40.4999 20.3 36.6999 16.5 31.9999 16.5ZM13.4499 54.5C13.1999 54.5 12.9499 54.45 12.6999 54.3C11.9999 53.9 11.7499 53 12.1499 52.25C16.1999 45.15 23.7999 40.7 31.9999 40.7C40.1999 40.7 47.7999 45.15 51.8499 52.25C52.2499 52.95 51.9999 53.9 51.2999 54.3C50.5999 54.7 49.6499 54.45 49.2499 53.75C45.7499 47.55 39.1499 43.7 31.9999 43.7C24.8999 43.7 18.2999 47.55 14.7499 53.75C14.4999 54.25 13.9999 54.5 13.4499 54.5Z" fill="black"/>
</svg>
