<svg width="24" height="24" viewBox="0 0 24 24" fill="none" xmlns="http://www.w3.org/2000/svg">
<path d="M12 0L0 5.89575V20.3188H1.5V8.4985L4.5 9.79269V17.6153L4.86328 17.8886C4.86328 17.8886 8.11523 20.3188 12 20.3188C15.8848 20.3188 19.1367 17.8886 19.1367 17.8886L19.5 17.6153V9.79269L24 7.8586V5.89575L12 0ZM12 1.98442L21.8672 6.82325L12 11.0581L2.13281 6.82325L12 1.98442ZM6 10.4326L12 13.0138L12.2461 12.9059L18 10.4398V16.5081C17.5078 16.846 15.0469 18.4781 12 18.4781C8.95312 18.4781 6.49219 16.846 6 16.5081V10.4326ZM0.75 22.1594C0.333984 22.1594 0 22.5692 0 23.0797C0 23.5902 0.333984 24 0.75 24C1.16602 24 1.5 23.5902 1.5 23.0797C1.5 22.5692 1.16602 22.1594 0.75 22.1594Z" fill="#E8D2A6"/>
</svg>
