<svg width="16" height="16" viewBox="0 0 16 16" fill="none" xmlns="http://www.w3.org/2000/svg">
<g clip-path="url(#clip0_178_2137)">
<path d="M4.79977 2.13333C3.32724 2.13333 2.1331 3.32746 2.1331 4.8V5.33333C2.1331 6.80586 3.32724 8 4.79977 8C6.2723 8 7.46644 6.80586 7.46644 5.33333V4.8C7.46644 3.32746 6.2723 2.13333 4.79977 2.13333ZM11.1998 2.13333C9.72724 2.13333 8.5331 3.32746 8.5331 4.8V5.33333C8.5331 6.80586 9.72724 8 11.1998 8C12.6723 8 13.8664 6.80586 13.8664 5.33333V4.8C13.8664 3.32746 12.6723 2.13333 11.1998 2.13333ZM11.1998 3.2C12.0819 3.2 12.7998 3.91786 12.7998 4.8V5.33333C12.7998 6.21547 12.0819 6.93333 11.1998 6.93333C10.3176 6.93333 9.59977 6.21547 9.59977 5.33333V4.8C9.59977 3.91786 10.3176 3.2 11.1998 3.2ZM4.79873 9.06667C3.05046 9.06667 0.807603 10.0662 0.162269 11.1542C-0.236131 11.8262 0.143286 12.8 0.797686 12.8H7.19769H8.80185H15.2019C15.8563 12.8 16.2362 11.8262 15.8373 11.1542C15.1914 10.0662 12.947 9.06667 11.1987 9.06667C10.1585 9.06667 8.94958 9.42484 7.99977 9.94062C7.04968 9.42461 5.83923 9.06667 4.79873 9.06667ZM11.1987 10.1333C12.6761 10.1333 14.5105 11.0083 14.9196 11.6979C14.9254 11.7075 14.9278 11.72 14.93 11.7333H9.5956C9.59067 11.5348 9.54295 11.3339 9.43623 11.1542C9.33123 10.9771 9.17205 10.8049 8.99144 10.6365C9.67491 10.343 10.4781 10.1333 11.1987 10.1333Z" fill="black"/>
</g>
<defs>
<clipPath id="clip0_178_2137">
<rect width="16" height="16" fill="white"/>
</clipPath>
</defs>
</svg>
