<svg width="71" height="72" viewBox="0 0 71 72" fill="none" xmlns="http://www.w3.org/2000/svg">
<path d="M18.582 5.19531C14.5883 5.19531 11.3711 8.4125 11.3711 12.4062V56.7812C11.3711 60.775 14.5883 63.9922 18.582 63.9922H36.6094C37.5523 63.9922 38.2734 63.2711 38.2734 62.3281C38.2734 61.3852 37.5523 60.6641 36.6094 60.6641H18.582C16.4187 60.6641 14.6992 58.9445 14.6992 56.7812V12.4062C14.6992 10.243 16.4187 8.52344 18.582 8.52344H52.418C54.5813 8.52344 56.3008 10.243 56.3008 12.4062V56.7812C56.3008 58.9445 54.5813 60.6641 52.418 60.6641H50.7539C49.8109 60.6641 49.0898 61.3852 49.0898 62.3281C49.0898 63.2711 49.8109 63.9922 50.7539 63.9922H52.418C56.4117 63.9922 59.6289 60.775 59.6289 56.7812V12.4062C59.6289 8.4125 56.4117 5.19531 52.418 5.19531H18.582ZM20.8008 17.3984C19.8578 17.3984 19.1367 18.1195 19.1367 19.0625C19.1367 20.0055 19.8578 20.7266 20.8008 20.7266H49.0898C50.0328 20.7266 50.7539 20.0055 50.7539 19.0625C50.7539 18.1195 50.0328 17.3984 49.0898 17.3984H20.8008ZM20.8008 25.7188C19.8578 25.7188 19.1367 26.4398 19.1367 27.3828C19.1367 28.3258 19.8578 29.0469 20.8008 29.0469H49.0898C50.0328 29.0469 50.7539 28.3258 50.7539 27.3828C50.7539 26.4398 50.0328 25.7188 49.0898 25.7188H20.8008ZM20.8008 34.0391C19.8578 34.0391 19.1367 34.7602 19.1367 35.7031C19.1367 36.6461 19.8578 37.3672 20.8008 37.3672H33.8359C34.7789 37.3672 35.5 36.6461 35.5 35.7031C35.5 34.7602 34.7789 34.0391 33.8359 34.0391H20.8008ZM43.7651 47.0742C39.8268 47.0742 36.6094 50.4028 36.6094 54.452C36.6094 57.059 37.9406 59.3881 39.9375 60.7193V66.4883L43.8203 64.8795L47.5926 66.4883V60.7193C49.5895 59.3881 50.9207 57.1145 50.9207 54.452C50.9207 50.4028 47.7033 47.0742 43.7651 47.0742ZM43.8203 50.4023C45.9281 50.4023 47.6479 52.2332 47.6479 54.452C47.6479 56.6707 45.9281 58.5006 43.8203 58.5006C41.7125 58.5006 39.9928 56.6707 39.9928 54.452C39.9928 52.2332 41.7125 50.4023 43.8203 50.4023Z" fill="#E8D2A6"/>
</svg>
