<svg width="24" height="24" viewBox="0 0 24 24" fill="none" xmlns="http://www.w3.org/2000/svg">
<path d="M6.28125 1.6875C4.93125 1.6875 3.84375 2.775 3.84375 4.125V19.125C3.84375 20.475 4.93125 21.5625 6.28125 21.5625H12.375C12.6938 21.5625 12.9375 21.3188 12.9375 21C12.9375 20.6812 12.6938 20.4375 12.375 20.4375H6.28125C5.55 20.4375 4.96875 19.8563 4.96875 19.125V4.125C4.96875 3.39375 5.55 2.8125 6.28125 2.8125H17.7188C18.45 2.8125 19.0312 3.39375 19.0312 4.125V19.125C19.0312 19.8563 18.45 20.4375 17.7188 20.4375H17.1562C16.8375 20.4375 16.5938 20.6812 16.5938 21C16.5938 21.3188 16.8375 21.5625 17.1562 21.5625H17.7188C19.0688 21.5625 20.1562 20.475 20.1562 19.125V4.125C20.1562 2.775 19.0688 1.6875 17.7188 1.6875H6.28125ZM7.03125 5.8125C6.7125 5.8125 6.46875 6.05625 6.46875 6.375C6.46875 6.69375 6.7125 6.9375 7.03125 6.9375H16.5938C16.9125 6.9375 17.1562 6.69375 17.1562 6.375C17.1562 6.05625 16.9125 5.8125 16.5938 5.8125H7.03125ZM7.03125 8.625C6.7125 8.625 6.46875 8.86875 6.46875 9.1875C6.46875 9.50625 6.7125 9.75 7.03125 9.75H16.5938C16.9125 9.75 17.1562 9.50625 17.1562 9.1875C17.1562 8.86875 16.9125 8.625 16.5938 8.625H7.03125ZM7.03125 11.4375C6.7125 11.4375 6.46875 11.6812 6.46875 12C6.46875 12.3188 6.7125 12.5625 7.03125 12.5625H11.4375C11.7562 12.5625 12 12.3188 12 12C12 11.6812 11.7562 11.4375 11.4375 11.4375H7.03125ZM14.7938 15.8438C13.4626 15.8438 12.375 16.9689 12.375 18.3376C12.375 19.2189 12.825 20.0062 13.5 20.4562V22.4062L14.8125 21.8624L16.0876 22.4062V20.4562C16.7626 20.0062 17.2126 19.2376 17.2126 18.3376C17.2126 16.9689 16.1251 15.8438 14.7938 15.8438ZM14.8125 16.9688C15.525 16.9688 16.1063 17.5876 16.1063 18.3376C16.1063 19.0876 15.525 19.7062 14.8125 19.7062C14.1 19.7062 13.5187 19.0876 13.5187 18.3376C13.5187 17.5876 14.1 16.9688 14.8125 16.9688Z" fill="black"/>
</svg>
