<svg width="64" height="64" viewBox="0 0 64 64" fill="none" xmlns="http://www.w3.org/2000/svg">
<path d="M56.0982 0C54.0529 0 52.0494 0.792699 50.505 2.33638L24.0421 28.704L23.4577 29.2881L23.2908 30.1226L21.4542 39.4681L20.6194 43.3898L24.5429 42.5554L33.8926 40.7197L34.7274 40.5528L35.3118 39.9687L61.6913 13.5176C64.7696 10.4407 64.7696 5.4133 61.6913 2.33638C60.1469 0.792699 58.1434 0 56.0982 0ZM56.0982 5.1734C56.7243 5.1734 57.3399 5.49674 57.9347 6.09126C59.1243 7.28031 59.1243 8.57367 57.9347 9.76271L32.0561 35.6297L27.4647 36.5476L28.383 31.9583L54.2616 6.09126C54.8564 5.49674 55.4721 5.1734 56.0982 5.1734ZM0 10.5971V64H53.4268V28.7875L48.0841 34.1278V58.6597H5.34268V15.9374H29.8856L35.2283 10.5971H0Z" fill="black"/>
</svg>
