<svg width="24" height="24" viewBox="0 0 24 24" fill="none" xmlns="http://www.w3.org/2000/svg">
<path d="M12.09 3.55208C4.5 3.55208 0 12 0 12C0 12 4.5 20.4479 12.09 20.4479C19.5 20.4479 24 12 24 12C24 12 19.5 3.55208 12.09 3.55208ZM12 6.36805C15.33 6.36805 18 8.90243 18 12C18 15.1257 15.33 17.632 12 17.632C8.7 17.632 6 15.1257 6 12C6 8.90243 8.7 6.36805 12 6.36805ZM12 9.18403C10.35 9.18403 9 10.4512 9 12C9 13.5488 10.35 14.816 12 14.816C13.65 14.816 15 13.5488 15 12C15 11.7184 14.88 11.465 14.82 11.2115C14.58 11.6621 14.1 12 13.5 12C12.66 12 12 11.3805 12 10.592C12 10.0288 12.36 9.57827 12.84 9.35299C12.57 9.26851 12.3 9.18403 12 9.18403Z" fill="#DDDDDD" fill-opacity="0.5"/>
</svg>
