<svg width="24" height="24" viewBox="0 0 24 24" fill="none" xmlns="http://www.w3.org/2000/svg">
<path d="M10.2857 0V4.28571L12 6V1.71429H18V6H22.2857V17.1429H15.4286V18.8571H24V4.78125L23.8092 4.55357L19.6908 0.204241L19.4766 0H10.2857ZM19.885 2.49107L21.6429 4.35268H19.885V2.49107ZM0 5.14286V24H13.7143V9.92411L13.5234 9.69643L9.42857 5.14286H0ZM1.71429 6.85714H7.71429V11.1429H12V22.2857H1.71429V6.85714ZM9.59933 7.63393L11.3571 9.49554H9.59933V7.63393ZM15.4286 8.57143V10.2857H20.5714V8.57143H15.4286ZM15.4286 12V13.7143H20.5714V12H15.4286ZM3.42857 13.7143V15.4286H10.2857V13.7143H3.42857ZM3.42857 17.1429V18.8571H10.2857V17.1429H3.42857Z" fill="#E8D2A6"/>
</svg>
