<svg width="64" height="64" viewBox="0 0 64 64" fill="none" xmlns="http://www.w3.org/2000/svg">
<path d="M32 7C25.3696 7 19.0107 9.63392 14.3223 14.3223C9.63392 19.0107 7 25.3696 7 32C7 38.6304 9.63392 44.9893 14.3223 49.6777C19.0107 54.3661 25.3696 57 32 57C38.6304 57 44.9893 54.3661 49.6777 49.6777C54.3661 44.9893 57 38.6304 57 32C57 25.3696 54.3661 19.0107 49.6777 14.3223C44.9893 9.63392 38.6304 7 32 7Z" fill="white"/>
<path d="M39.3 44.75C39.05 44.75 38.8 44.7 38.6 44.6L32 41.1L25.4 44.6C24.9 44.85 24.3 44.8 23.8 44.5C23.35 44.15 23.1 43.6 23.2 43.05L24.45 35.7L19.1 30.4C18.5 29.8 18.5 28.85 19.05 28.3C19.6 27.75 20.6 27.7 21.15 28.25L27.05 34C27.4 34.35 27.55 34.85 27.5 35.35L26.7 40.5L31.3 38.05C31.75 37.8 32.25 37.8 32.7 38.05L37.3 40.5L36.4 35.35C36.3 34.85 36.5 34.35 36.85 34L40.6 30.35L35.45 29.6C34.95 29.55 34.55 29.2 34.3 28.8L32 24.15L31.8 24.55C31.45 25.3 30.55 25.6 29.8 25.25C29.05 24.9 28.75 24 29.1 23.25L30.65 20.1C30.9 19.6 31.4 19.25 32 19.25C32.55 19.25 33.1 19.55 33.35 20.1L36.65 26.8L44.05 27.85C44.6 27.95 45.1 28.35 45.25 28.85C45.45 29.4 45.3 30 44.85 30.4L39.55 35.65L40.8 43C40.9 43.55 40.65 44.15 40.2 44.45C39.95 44.65 39.6 44.75 39.3 44.75Z" fill="#444B54"/>
<path d="M28.3498 29.6496C27.9498 29.6496 27.5498 29.4996 27.2998 29.1996C27.2498 29.1496 27.1498 29.0496 27.0998 28.9496C27.0498 28.8496 26.9998 28.7996 26.9498 28.6996C26.8998 28.5996 26.8998 28.4996 26.8498 28.3996C26.8498 28.2996 26.7998 28.1996 26.7998 28.0996C26.7998 27.6996 26.9498 27.2996 27.2498 27.0496C27.5998 26.6996 28.0998 26.5496 28.5998 26.6496C28.6998 26.6496 28.7998 26.6996 28.8998 26.7496C28.9998 26.7996 29.0998 26.8496 29.1498 26.8996C29.2498 26.9496 29.2998 26.9996 29.3998 27.0996C29.6998 27.3996 29.8498 27.7496 29.8498 28.1496C29.8498 28.2496 29.8498 28.3496 29.7998 28.4496C29.7998 28.5496 29.7498 28.6496 29.6998 28.7496C29.6498 28.8496 29.5998 28.9496 29.5498 28.9996C29.4998 29.0996 29.4498 29.1496 29.3498 29.2496C29.2998 29.2996 29.1998 29.3996 29.0998 29.4496C28.9998 29.4996 28.9498 29.5496 28.8498 29.5996C28.7498 29.6496 28.6498 29.6496 28.5498 29.6996C28.5498 29.6496 28.4498 29.6496 28.3498 29.6496Z" fill="#444B54"/>
<path d="M32 58.5C17.4 58.5 5.5 46.6 5.5 32C5.5 17.4 17.4 5.5 32 5.5C46.6 5.5 58.5 17.4 58.5 32C58.5 46.6 46.6 58.5 32 58.5ZM32 8.5C19.05 8.5 8.5 19.05 8.5 32C8.5 44.95 19.05 55.5 32 55.5C44.95 55.5 55.5 44.95 55.5 32C55.5 19.05 44.95 8.5 32 8.5Z" fill="#444B54"/>
</svg>
