<svg width="24" height="24" viewBox="0 0 24 24" fill="none" xmlns="http://www.w3.org/2000/svg">
<path d="M13.9162 4.1025C11.4131 4.1025 9.30375 5.59688 8.28562 7.71375C7.74187 7.33875 7.11937 7.06688 6.41062 7.06688C4.6275 7.06688 3.19313 8.47875 3.08625 10.2356C1.29937 10.8825 0 12.5531 0 14.5575C0 17.1169 2.08313 19.2 4.6425 19.2H19.7269C22.0819 19.2 24 17.2819 24 14.9269C24 12.7425 22.3256 11.0006 20.205 10.7513C20.2125 10.6388 20.2275 10.53 20.2275 10.4138C20.2275 6.93375 17.3962 4.1025 13.9162 4.1025ZM13.9162 5.0625C16.8787 5.0625 19.2675 7.45313 19.2675 10.4138C19.2675 10.6331 19.2506 10.8525 19.2225 11.0775L19.155 11.6156H19.6987C19.7569 11.6156 19.7644 11.6156 19.7269 11.6156C21.5625 11.6156 23.04 13.0931 23.04 14.9269C23.04 16.7625 21.5625 18.24 19.7269 18.24H4.6425C2.6025 18.24 0.96 16.5975 0.96 14.5575C0.96 12.8606 2.10563 11.4431 3.66 11.0138L4.02562 10.9125L4.0125 10.5356C4.01062 10.4681 4.00688 10.4344 4.00688 10.4306C4.00688 9.0975 5.0775 8.02688 6.41062 8.02688C7.07812 8.02688 7.67625 8.29688 8.11125 8.73188L8.64 9.2625L8.9025 8.55938C9.65625 6.52125 11.6081 5.0625 13.9162 5.0625ZM11.6681 8.64C11.5725 8.64 11.5181 8.69438 11.5181 8.79V14.25C11.5181 14.3456 11.5725 14.4 11.6681 14.4H12.8325C12.9281 14.4 12.9675 14.3456 12.9675 14.25V8.79C12.9675 8.69438 12.9281 8.64 12.8325 8.64H11.6681ZM11.67 15.3581C11.5744 15.3581 11.52 15.3975 11.52 15.4931V16.65C11.52 16.7456 11.5744 16.8 11.67 16.8H12.8119C12.9075 16.8 12.9619 16.7456 12.9619 16.65V15.4931C12.9619 15.3975 12.9075 15.3581 12.8119 15.3581H11.67Z" fill="black"/>
</svg>
