<svg width="24" height="24" viewBox="0 0 24 24" fill="none" xmlns="http://www.w3.org/2000/svg">
<path d="M6.68681 0.00997076C6.61663 0.0235036 6.54836 0.051436 6.4881 0.0933013C6.39418 0.158899 4.1739 1.73136 4.1739 3.92755V5.73686C4.09218 5.88662 4.01183 6.03692 3.94156 6.19102C3.52843 4.60192 2.68581 3.88541 2.63823 3.84734C2.52241 3.75508 2.371 3.7155 2.22961 3.7411C2.08508 3.76616 1.95837 3.85169 1.87906 3.97755C1.36619 4.78979 0.898461 6.25345 1.08524 7.54514C1.22896 8.53966 1.95295 9.37727 3.14571 9.94818C3.1361 10.1865 3.13042 10.4259 3.13042 10.6669C3.13042 10.6831 3.13238 10.6987 3.13246 10.7148C2.09454 9.91095 0.707086 9.62678 0.618532 9.60965C0.455749 9.57819 0.283575 9.62875 0.16201 9.74715C0.0404446 9.86554 -0.0183978 10.0364 0.00508042 10.2065C0.0165587 10.2956 0.309809 12.3999 1.13416 13.6345C1.73624 14.5364 2.60901 14.7959 3.33422 14.7959C3.57149 14.7959 3.77946 14.7634 3.96908 14.7209C4.10635 15.039 4.25907 15.3468 4.42662 15.6449C4.10494 15.5386 3.77837 15.4668 3.45956 15.4668C2.39052 15.4668 1.35681 16.0412 1.3135 16.0657C1.0782 16.1985 0.979331 16.4915 1.08524 16.7438C1.1275 16.8441 2.14298 19.2 4.20855 19.2C5.44077 19.2 6.266 18.6971 6.70617 18.3323C7.09106 18.6374 7.5004 18.9323 7.92594 19.2145C5.9263 19.3459 4.8944 20.3759 4.84849 20.4228C4.73788 20.5359 4.68356 20.6936 4.69869 20.853C4.71383 21.012 4.79806 21.1551 4.92797 21.2436C4.99737 21.2906 6.64381 22.3999 8.34781 22.3999C9.59906 22.3999 10.3247 21.5804 10.6885 20.9895C10.8803 21.1191 11.0633 21.2452 11.2133 21.3582C10.5932 21.9818 10.1941 22.6225 9.94768 23.2748C9.92305 23.3402 9.91127 23.4099 9.913 23.48C9.91473 23.55 9.92994 23.619 9.95776 23.683C9.98558 23.7471 10.0255 23.8049 10.0751 23.8531C10.1248 23.9014 10.1833 23.9392 10.2473 23.9644C10.3765 24.0152 10.5201 24.0115 10.6466 23.9541C10.7093 23.9256 10.7658 23.8849 10.813 23.8341C10.8603 23.7833 10.8972 23.7235 10.9219 23.6581C11.1318 23.1026 11.444 22.5932 12 22.0551C12.556 22.5932 12.8682 23.1026 13.0781 23.6581C13.1027 23.7235 13.1397 23.7833 13.1869 23.8341C13.2342 23.8849 13.2907 23.9256 13.3534 23.9541C13.416 23.9825 13.4835 23.9981 13.552 23.9998C13.6205 24.0016 13.6887 23.9896 13.7527 23.9644C13.8167 23.9392 13.8752 23.9014 13.9248 23.8531C13.9745 23.8049 14.0144 23.7471 14.0422 23.683C14.07 23.619 14.0852 23.55 14.087 23.48C14.0887 23.4099 14.0769 23.3402 14.0523 23.2748C13.8058 22.6225 13.4067 21.9818 12.7867 21.3582C12.9365 21.2453 13.1189 21.1189 13.3104 20.9895C13.6751 21.5804 14.4009 22.3999 15.6522 22.3999C17.3562 22.3999 19.0026 21.2906 19.072 21.2436C19.2019 21.1551 19.2861 21.0114 19.3013 20.853C19.3164 20.6936 19.2621 20.5359 19.1515 20.4228C19.1056 20.3759 18.0737 19.3459 16.074 19.2145C16.4996 18.9323 16.9089 18.6374 17.2938 18.3323C17.7339 18.6971 18.5589 19.2 19.7914 19.2C21.857 19.2 22.8725 16.8441 22.9147 16.7438C23.0206 16.4915 22.9223 16.1985 22.6865 16.0657C22.6432 16.0412 21.6095 15.4668 20.5404 15.4668C20.2219 15.4668 19.8958 15.5383 19.5744 15.6438C19.7416 15.3462 19.8938 15.0386 20.0309 14.7209C20.2205 14.7634 20.429 14.7959 20.6657 14.7959C21.391 14.7959 22.2637 14.5364 22.8658 13.6345C23.6902 12.3999 23.9834 10.2956 23.9949 10.2065C24.0184 10.0364 23.9601 9.86554 23.838 9.74715C23.7159 9.62875 23.5432 9.57819 23.3804 9.60965C23.2916 9.62677 21.9052 9.91058 20.8675 10.7138C20.8676 10.698 20.8696 10.6827 20.8696 10.6669C20.8696 10.4262 20.8649 10.1872 20.8553 9.94922C22.0389 9.38808 22.7715 8.54592 22.9157 7.54514C23.102 6.25291 22.6343 4.78925 22.1209 3.97755C22.0416 3.85169 21.9144 3.76667 21.7694 3.74214C21.6269 3.71654 21.477 3.75508 21.3617 3.84734C21.3142 3.8854 20.4716 4.60215 20.0584 6.19102C19.9881 6.03692 19.9078 5.88662 19.8261 5.73686V3.92755C19.8261 1.73136 17.6053 0.158899 17.5109 0.0933013C17.3903 0.00957077 17.2395 -0.0205282 17.0992 0.0141373C16.9573 0.0477362 16.8359 0.140783 16.7639 0.270379C16.7243 0.34131 15.8026 2.02733 16.342 3.61714C16.842 5.0907 18.4981 6.03619 18.9171 6.25768C19.0522 6.50549 19.1698 6.76286 19.2707 7.02953C18.605 6.45251 17.8836 6.12017 17.4293 5.91394C17.2676 5.84034 17.0812 5.85486 16.9331 5.95352C16.7849 6.05112 16.6956 6.22012 16.6956 6.40038C16.6956 7.20836 16.6959 8.3149 17.4232 9.4482C18.0821 10.4756 19.1827 10.9118 19.8067 11.0867C19.7815 11.6502 19.7071 12.1973 19.5866 12.7262C19.3677 12.2222 19.026 11.7528 18.5462 11.3294C18.3443 11.1507 18.0427 11.1584 17.8492 11.344C17.8022 11.3893 16.6956 12.4675 16.6956 14.3512C16.6956 15.1868 17.1576 15.9862 17.6556 16.5532C17.6129 16.6019 17.575 16.6555 17.5312 16.7032C17.2267 17.0349 16.8106 17.3782 16.3502 17.7208C16.6376 16.869 16.691 16.0926 16.6946 16.0344C16.7045 15.8766 16.6448 15.7229 16.5326 15.6136C16.4204 15.5048 16.2656 15.4539 16.1138 15.4709C16.0371 15.48 14.2257 15.7069 13.1515 16.9063C12.2767 17.8827 12.5151 19.3915 12.699 20.1145C12.4405 20.2905 12.2087 20.4648 12 20.6385C11.7911 20.4647 11.5588 20.2907 11.2999 20.1145C11.4841 19.3915 11.7233 17.8827 10.8485 16.9063C9.77423 15.7069 7.96341 15.48 7.8862 15.4709C7.73333 15.4539 7.57853 15.5048 7.46636 15.6136C7.35418 15.7224 7.29596 15.8766 7.30535 16.0344C7.30891 16.0929 7.36348 16.8692 7.64367 17.7156C7.186 17.3746 6.77183 17.0333 6.46874 16.7032C6.42501 16.6555 6.38711 16.6019 6.34442 16.5532C6.84239 15.9867 7.30433 15.1873 7.30433 14.3512C7.30433 12.4675 6.19726 11.3893 6.14978 11.344C5.9557 11.1584 5.65416 11.1513 5.45277 11.3294C4.97319 11.7526 4.63123 12.2214 4.41235 12.7252C4.29203 12.1966 4.21842 11.6497 4.19326 11.0867C4.81726 10.9118 5.9189 10.4756 6.57777 9.4482C7.30455 8.3149 7.30433 7.20836 7.30433 6.40038C7.30433 6.22012 7.21508 6.05165 7.0669 5.95352C6.91821 5.85486 6.73186 5.83984 6.57064 5.9129C6.11681 6.11912 5.39522 6.45152 4.72927 7.02849C4.83011 6.76214 4.94793 6.50521 5.08287 6.25768C5.50183 6.0359 7.15794 5.0907 7.65793 3.61714C8.19741 2.02733 7.27571 0.34131 7.23606 0.270379C7.16406 0.140783 7.04222 0.0477362 6.89978 0.0141373C6.82909 -0.00292881 6.75698 -0.00356213 6.68681 0.00997076Z" fill="#E8D2A6"/>
</svg>
