<svg width="64" height="64" viewBox="0 0 64 64" fill="none" xmlns="http://www.w3.org/2000/svg">
<path d="M50.6667 7.99999H39.5093C38.408 4.89866 35.4773 2.66666 32 2.66666C28.5227 2.66666 25.592 4.89866 24.4907 7.99999H13.3333C10.3867 7.99999 8 10.3867 8 13.3333V50.6667C8 53.6133 10.3867 56 13.3333 56H50.6667C53.6133 56 56 53.6133 56 50.6667V13.3333C56 10.3867 53.6133 7.99999 50.6667 7.99999ZM32 7.99999C33.472 7.99999 34.6667 9.19466 34.6667 10.6667C34.6667 12.1387 33.472 13.3333 32 13.3333C30.528 13.3333 29.3333 12.1387 29.3333 10.6667C29.3333 9.19466 30.528 7.99999 32 7.99999ZM32 21.3333C35.0213 21.3333 37.3333 23.6453 37.3333 26.6667C37.3333 29.688 35.0213 32 32 32C28.9787 32 26.6667 29.688 26.6667 26.6667C26.6667 23.6453 28.9787 21.3333 32 21.3333ZM42.6667 42.6667H21.3333C21.3333 42.248 21.3333 41.0027 21.3333 40.5787C21.3333 37.0907 26.1733 34.6667 32 34.6667C37.8267 34.6667 42.6667 37.0907 42.6667 40.5787C42.6667 41.0027 42.6667 42.248 42.6667 42.6667Z" fill="#86A3B8"/>
</svg>
