<svg width="64" height="64" viewBox="0 0 64 64" fill="none" xmlns="http://www.w3.org/2000/svg">
<path d="M5.81818 0C2.60364 0 0 2.60364 0 5.81818V58.1818C0 61.3964 2.60364 64 5.81818 64H58.1818C61.3964 64 64 61.3964 64 58.1818V5.81818C64 2.60364 61.3964 0 58.1818 0H5.81818ZM20.4034 7.64773C26.8732 7.64773 30.5568 10.5945 30.5568 15.6534V31.642H23.3068V28.733H22.9034C21.8532 30.7344 19.2827 32 16.3125 32C11.8034 32 8.72727 29.1974 8.72727 24.8977C8.72727 20.6214 12.0543 18.1362 18.1023 17.7784L23.2216 17.483V15.6534C23.2216 14.0738 22.0398 13.125 19.9773 13.125C18.0165 13.125 16.7585 13.7749 16.2727 15.017H9.56818C9.90564 10.4643 14.0616 7.64773 20.4034 7.64773ZM23.2216 21.6761L19.2841 21.9261C17.0703 22.0949 15.9148 22.9641 15.9148 24.375C15.9148 25.8703 17.1577 26.7955 19.0341 26.7955C21.3934 26.7955 23.2216 25.2377 23.2216 23.2159V21.6761ZM35.3239 32H54.8977V36.5398L44.9205 49.3125V49.7159H55.2727V55.2727H35.0739V51.3182L46.0284 37.9602V37.5568H35.3239V32Z" fill="black"/>
</svg>
