<svg width="24" height="24" viewBox="0 0 24 24" fill="none" xmlns="http://www.w3.org/2000/svg">
<path opacity="0.5" d="M14 4.89665C13.7441 4.89665 13.488 4.98779 13.293 5.167L13.207 5.24577C12.816 5.60419 12.816 6.1845 13.207 6.542L17.0703 10.0833H4C3.448 10.0833 3 10.494 3 11C3 11.506 3.448 11.9167 4 11.9167H17.0703L13.207 15.458C12.816 15.8164 12.816 16.3967 13.207 16.7542L13.293 16.833C13.684 17.1914 14.317 17.1914 14.707 16.833L20.3633 11.6481C20.7543 11.2897 20.7543 10.7094 20.3633 10.3519L14.707 5.167C14.5115 4.98779 14.2559 4.89665 14 4.89665Z" fill="#86A3B8"/>
</svg>
