<svg width="24" height="24" viewBox="0 0 24 24" fill="none" xmlns="http://www.w3.org/2000/svg">
<path d="M14.3594 6.25C13.5195 6.25 12.8281 6.94141 12.8281 7.78125C12.8281 8.62109 13.5195 9.3125 14.3594 9.3125C15.2012 9.3125 15.9062 8.62109 15.9062 7.78125C15.9062 6.94141 15.2012 6.25 14.3594 6.25ZM14.3594 7.25C14.6602 7.25 14.9062 7.48242 14.9062 7.78125C14.9062 8.08008 14.6602 8.3125 14.3594 8.3125C14.0605 8.3125 13.8281 8.08203 13.8281 7.78125C13.8281 7.48242 14.0605 7.25 14.3594 7.25ZM10.7188 8.25C10.4785 8.2793 10.2363 8.39062 10.0625 8.57812L8.375 10.4062L9.125 11.0938L10.7969 9.26562C10.8145 9.24805 10.8379 9.23633 10.8594 9.25L11.6562 9.78125L10.4844 11.4062C10.1172 11.9219 10.1777 12.6309 10.625 13.0781L12.3906 14.8438L10.9375 17.75H12.0625L13.2969 15.2969C13.4902 14.9121 13.4141 14.4453 13.1094 14.1406L11.3438 12.375C11.2422 12.2734 11.2285 12.1016 11.3125 11.9844L12.4844 10.3438L12.8906 10.6094L13.6875 11.8125C13.873 12.0898 14.1816 12.25 14.5156 12.25H16.75V11.25H14.5156L13.6719 9.96875L13.6094 9.89062L13.5312 9.82812L11.4219 8.42188C11.209 8.2793 10.959 8.2207 10.7188 8.25ZM10.2812 13.5156L9.54688 14.25H7.25V15.25H9.54688C9.81055 15.25 10.0625 15.1426 10.25 14.9531L10.9844 14.2188L10.2812 13.5156Z" fill="#E8D2A6"/>
</svg>
