<svg width="221" height="222" viewBox="0 0 221 222" fill="none" xmlns="http://www.w3.org/2000/svg">
<path d="M27.6249 18.917C17.4497 18.917 9.20825 27.1585 9.20825 37.3337V147.834C9.20825 158.009 17.4497 166.25 27.6249 166.25H92.0832V184.667H73.6666V203.084H147.333V184.667H128.917V166.25H193.375C203.55 166.25 211.792 158.009 211.792 147.834V37.3337C211.792 27.1585 203.55 18.917 193.375 18.917H27.6249ZM27.6249 37.3337H193.375V147.834H27.6249V37.3337ZM113 54.0777L94.5832 127.744L108 131.09L126.417 57.4229L113 54.0777ZM75.573 63.0522L46.0416 92.5837L75.573 122.115L84.7813 112.907L64.4583 92.5837L84.7813 72.2606L75.573 63.0522ZM145.427 63.0522L136.219 72.2606L156.542 92.5837L136.219 112.907L145.427 122.115L174.958 92.5837L145.427 63.0522Z" fill="#86A3B8"/>
</svg>
