<svg width="64" height="64" viewBox="0 0 64 64" fill="none" xmlns="http://www.w3.org/2000/svg">
<path d="M14.8305 0C11.0278 0 7.21472 1.44804 4.32883 4.33369C-1.44294 10.105 -1.44294 19.5641 4.32883 25.3354L14.0804 35.0862C15.1118 36.1488 16.81 36.1592 17.8727 35.1279C18.9354 34.0965 18.9458 32.3985 17.9144 31.3359L8.07944 21.5017C4.34967 17.7723 4.34967 11.8135 8.07944 8.08399C11.8092 4.35452 17.7685 4.35452 21.4983 8.08399L34.5838 21.1684C38.3135 24.8979 38.3135 30.8567 34.5838 34.5861C34.1462 35.0237 33.6565 35.3362 33.1669 35.6696C31.9479 36.503 31.6249 38.1594 32.4584 39.3782C33.2919 40.5971 34.9484 40.92 36.1673 40.0866C36.9279 39.5657 37.6676 39.0032 38.3344 38.3365C44.1061 32.5652 44.1061 23.106 38.3344 17.3347L25.3322 4.33369C22.4464 1.44804 18.6332 0 14.8305 0ZM28.7495 23.6686C28.6349 23.6894 28.5203 23.7207 28.4161 23.7519C28.0202 23.8353 27.6555 24.002 27.3326 24.252C26.77 24.6791 26.1866 25.1479 25.6656 25.6688C19.8939 31.4401 19.8939 40.8992 25.6656 46.6705L38.6678 59.6715C44.4395 65.4428 53.8994 65.4428 59.6712 59.6715C65.4429 53.9002 65.4429 44.4411 59.6712 38.6698L49.9196 29.0024C49.2736 28.2106 48.2422 27.846 47.2421 28.0752C46.2523 28.3044 45.4709 29.0857 45.2417 30.0754C45.0125 31.0754 45.3772 32.1068 46.169 32.7527L55.9206 42.5035C59.6503 46.2329 59.6503 52.1917 55.9206 55.9212C52.1908 59.6507 46.2315 59.6507 42.5017 55.9212L29.4162 42.8368C25.6865 39.1073 25.6865 33.1485 29.4162 29.4191C29.7392 29.0857 30.1351 28.8565 30.4998 28.5857C31.5728 27.9294 32.0417 26.6063 31.6145 25.4187C31.1978 24.2311 29.9997 23.5019 28.7495 23.6686Z" fill="black"/>
</svg>
