<svg width="16" height="16" viewBox="0 0 16 16" fill="none" xmlns="http://www.w3.org/2000/svg">
<g clip-path="url(#clip0_188_1291)">
<path d="M4.00002 1.33333C3.26469 1.33333 2.66669 1.93133 2.66669 2.66666V13.3333C2.66669 14.0687 3.26469 14.6667 4.00002 14.6667H8.1732C8.02653 14.4567 7.89911 14.2333 7.78778 14H7.78908C7.78642 13.9947 7.78394 13.9891 7.78127 13.9831C7.69594 13.8017 7.62452 13.6139 7.56252 13.4206C7.41785 12.9726 7.33335 12.4967 7.33335 12C7.33335 9.42266 9.42269 7.33333 12 7.33333C12.2267 7.33333 12.4487 7.35538 12.6667 7.38671V7.38281C12.8947 7.41614 13.1174 7.46594 13.3334 7.52994V5.33333L9.33335 1.33333H4.00002ZM8.66669 2.30338L12.3334 6H8.66669V2.30338ZM12 8.66666C10.1334 8.66666 8.66669 10.1333 8.66669 12C8.66669 13.8667 10.1334 15.3333 12 15.3333C12.6667 15.3333 13.3339 15.1328 13.8672 14.7995L15.0664 16L16 15.0664L14.7995 13.8672C15.1328 13.3338 15.3334 12.6667 15.3334 12C15.3334 10.1333 13.8667 8.66666 12 8.66666ZM12 10C13.1334 10 14 10.8667 14 12C14 13.1333 13.1334 14 12 14C10.8667 14 10 13.1333 10 12C10 10.8667 10.8667 10 12 10Z" fill="black"/>
</g>
<defs>
<clipPath id="clip0_188_1291">
<rect width="16" height="16" fill="white"/>
</clipPath>
</defs>
</svg>
